<?xml version="1.0" standalone="no"?>
<!DOCTYPE svg PUBLIC "-//W3C//DTD SVG 1.1//EN" "http://www.w3.org/Graphics/SVG/1.1/DTD/svg11.dtd" >
<svg xmlns="http://www.w3.org/2000/svg">
<metadata>Generated by IcoMoon</metadata>
<defs>
<font id="icomoon" horiz-adv-x="1024">
<font-face units-per-em="1024" ascent="960" descent="-64" />
<missing-glyph horiz-adv-x="1024" />
<glyph unicode="&#x20;" horiz-adv-x="512" d="" />
<glyph unicode="&#xe900;" glyph-name="adinovis" horiz-adv-x="986" d="M609.253 232.274h-47.131v727.657c13.849 0 27.448 0.268 40.977-0.277 2.112-0.087 4.778-3.584 5.912-6.059 0.322-1.375 0.507-2.955 0.507-4.577 0-1.19-0.099-2.356-0.29-3.492l0.017 0.123q0-350.217 0-700.443zM153.296 230.214h50.204v544.455h-50.204zM769.387 230.214h50.144v508.611h-50.144zM361.037 230.214h50.204v351.013h-50.204zM67.308 113.852h33.697l67.126-174.529h-34.528l-13.668 35.939h-71.221l-14.196-35.939h-34.52zM84.36 67.578l-23.371-59.916h46.673zM285.54 118.241h32.382v-178.926h-32.382v13.65c-5.36-5.311-11.666-9.677-18.642-12.822l-0.401-0.162c-5.956-2.509-12.88-3.967-20.145-3.967-0.188 0-0.376 0.001-0.563 0.003h0.029c-0.073 0-0.16-0.001-0.246-0.001-17.103 0-32.46 7.476-42.981 19.339l-0.052 0.060c-11.321 12.068-18.275 28.351-18.275 46.258 0 0.694 0.010 1.385 0.031 2.074l-0.002-0.101c-0.034 0.813-0.054 1.767-0.054 2.726 0 17.815 6.722 34.061 17.767 46.338l-0.056-0.063c10.353 11.735 25.426 19.099 42.218 19.099 0.236 0 0.472-0.001 0.707-0.004h-0.036c0.12 0.001 0.261 0.001 0.402 0.001 7.738 0 15.098-1.618 21.76-4.535l-0.349 0.136c7.342-3.29 13.598-7.725 18.836-13.148l0.017-0.017zM251.479 41.818c-0.246 0.007-0.536 0.010-0.827 0.010-9.537 0-18.121-4.084-24.097-10.599l-0.022-0.024c-6.185-6.778-9.973-15.836-9.973-25.778 0-0.511 0.010-1.020 0.030-1.526l-0.002 0.073c-0.016-0.418-0.025-0.909-0.025-1.402 0-10.076 3.847-19.254 10.153-26.144l-0.026 0.029c6.028-6.644 14.695-10.799 24.333-10.799 0.2 0 0.4 0.002 0.6 0.005h-0.030c0.262-0.007 0.571-0.012 0.88-0.012 9.629 0 18.305 4.079 24.394 10.604l0.018 0.020c6.266 6.872 10.104 16.052 10.104 26.129 0 0.595-0.013 1.186-0.040 1.774l0.003-0.084c0.022 0.481 0.034 1.045 0.034 1.613 0 9.936-3.842 18.974-10.122 25.711l0.021-0.022c-6.149 6.436-14.8 10.437-24.386 10.437-0.359 0-0.716-0.006-1.072-0.017l0.052 0.001zM363.296 121.565c0.068 0.001 0.149 0.001 0.23 0.001 5.661 0 10.767-2.371 14.382-6.173l0.008-0.008c3.745-3.719 6.063-8.871 6.063-14.564 0-0.135-0.001-0.271-0.004-0.405v0.020c0.002-0.098 0.003-0.214 0.003-0.33 0-5.65-2.32-10.759-6.059-14.425l-0.003-0.003c-3.567-3.773-8.607-6.121-14.195-6.121-0.086 0-0.171 0.001-0.256 0.002h0.013c-0.090-0.001-0.196-0.002-0.303-0.002-5.674 0-10.791 2.385-14.403 6.208l-0.009 0.009c-3.747 3.757-6.064 8.943-6.064 14.669 0 0.162 0.002 0.324 0.006 0.485v-0.024c0 0.008 0 0.017 0 0.026 0 11.382 9.214 20.611 20.59 20.636h0.002zM347.118 68.409h32.382v-129.094h-32.382zM408.921 68.409h32.399v-13.226c5.73 5.111 12.315 9.437 19.48 12.714l0.489 0.2c5.412 2.282 11.702 3.614 18.302 3.627h0.005c0.235 0.004 0.512 0.007 0.789 0.007 12.461 0 23.722-5.136 31.783-13.406l0.009-0.009c7.066-8.059 11.376-18.688 11.376-30.323 0-1.187-0.045-2.364-0.133-3.529l0.009 0.155v-85.312h-32.027v56.54c0.073 1.704 0.114 3.702 0.114 5.711 0 8.832-0.8 17.478-2.333 25.868l0.133-0.876c-1.115 4.682-3.674 8.648-7.173 11.509l-0.038 0.030c-3.321 2.489-7.511 3.985-12.050 3.985-0.243 0-0.485-0.004-0.726-0.013l0.035 0.001c-0.123 0.002-0.269 0.004-0.414 0.004-6.381 0-12.179-2.5-16.466-6.574l0.010 0.010c-4.849-4.806-8.308-11.007-9.725-17.951l-0.039-0.227c-0.962-6.304-1.512-13.578-1.512-20.979 0-1.83 0.034-3.653 0.1-5.467l-0.008 0.262v-51.797h-32.399zM615.39 71.733c0.061 0 0.134 0 0.206 0 12.568 0 24.344-3.391 34.464-9.307l-0.324 0.175c20.518-11.734 34.122-33.489 34.122-58.422 0-0.072 0-0.144 0-0.216v0.011c0-0.080 0.001-0.174 0.001-0.268 0-12.481-3.375-24.174-9.262-34.216l0.173 0.319c-5.937-10.442-14.323-18.875-24.405-24.7l-0.316-0.168c-9.715-5.631-21.375-8.954-33.811-8.954-0.252 0-0.504 0.001-0.756 0.004h0.038c-0.302-0.005-0.658-0.008-1.015-0.008-18.22 0-34.67 7.575-46.374 19.748l-0.020 0.021c-12.152 12.336-19.656 29.281-19.656 47.978 0 19.944 8.538 37.895 22.159 50.394l0.050 0.045c11.563 10.879 27.18 17.564 44.359 17.564 0.129 0 0.257 0 0.386-0.001h-0.020zM615.918 41.238c-0.242 0.006-0.527 0.010-0.813 0.010-9.567 0-18.193-4.030-24.274-10.484l-0.016-0.017c-6.237-6.648-10.068-15.617-10.068-25.481 0-0.497 0.010-0.991 0.029-1.483l-0.002 0.071c-0.023-0.492-0.036-1.070-0.036-1.65 0-9.89 3.783-18.897 9.981-25.653l-0.025 0.028c6.065-6.446 14.652-10.461 24.177-10.461 0.325 0 0.65 0.005 0.973 0.014l-0.048-0.001c0.257-0.007 0.56-0.011 0.864-0.011 9.631 0 18.314 4.060 24.43 10.563l0.016 0.017c6.279 7.249 10.105 16.773 10.105 27.19 0 10.319-3.754 19.761-9.971 27.036l0.048-0.057c-6.13 6.406-14.749 10.387-24.297 10.387-0.378 0-0.754-0.006-1.128-0.019l0.055 0.001zM696.487 68.409h33.022l32.624-76.172 32.537 76.172h32.823l-54.939-129.094h-20.999zM859.027 121.565c0.060 0.001 0.13 0.001 0.201 0.001 5.67 0 10.786-2.37 14.412-6.173l0.008-0.008c3.745-3.716 6.063-8.866 6.063-14.556 0-0.138-0.001-0.276-0.004-0.413v0.021c0.002-0.103 0.003-0.225 0.003-0.347 0-5.637-2.302-10.737-6.017-14.41l-0.002-0.002c-3.572-3.773-8.617-6.121-14.21-6.121-0.080 0-0.161 0-0.241 0.001h0.012c-0.078-0.001-0.17-0.002-0.262-0.002-5.687 0-10.817 2.384-14.444 6.208l-0.008 0.009c-3.747 3.757-6.064 8.943-6.064 14.669 0 0.162 0.002 0.324 0.006 0.485v-0.024c0 0.008 0 0.017 0 0.026 0 11.366 9.19 20.586 20.544 20.635h0.005zM842.824 68.409h32.399v-129.094h-32.416zM983.664 50.37l-20.047-20.047c-5.433 6.568-13.209 11.030-22.031 12.102l-0.163 0.016c-0.237 0.014-0.514 0.022-0.792 0.022-2.887 0-5.571-0.871-7.802-2.366l0.051 0.032c-1.861-1.261-3.067-3.365-3.067-5.751 0-1.873 0.744-3.573 1.953-4.82l-0.002 0.002c2.766-2.398 5.956-4.411 9.423-5.9l0.237-0.090 11.867-5.929c10.215-4.419 18.825-10.814 25.684-18.762l0.076-0.090c4.371-6.25 6.985-14.009 6.985-22.379 0-11.407-4.855-21.681-12.612-28.867l-0.026-0.023c-8.388-7.191-19.373-11.568-31.379-11.568-0.879 0-1.753 0.023-2.621 0.070l0.121-0.005c-0.474-0.015-1.031-0.023-1.589-0.023-17.797 0-33.577 8.637-43.377 21.947l-0.104 0.149 19.909 21.709c3.713-4.32 8.134-7.907 13.104-10.612l0.244-0.121c3.892-2.347 8.542-3.835 13.518-4.091l0.072-0.003c0.241-0.013 0.523-0.020 0.807-0.020 3.579 0 6.887 1.164 9.565 3.133l-0.045-0.031c2.307 1.581 3.827 4.165 3.929 7.108v0.015q0 7.47-14.135 14.577l-10.915 5.471q-31.317 15.762-31.326 39.505c-0.001 0.079-0.001 0.172-0.001 0.266 0 10.32 4.556 19.576 11.767 25.866l0.041 0.035c7.554 6.756 17.581 10.886 28.573 10.886 0.575 0 1.148-0.011 1.718-0.034l-0.082 0.003c0.084 0 0.184 0.001 0.284 0.001 17.249 0 32.549-8.347 42.081-21.222l0.1-0.142z" />
<glyph unicode="&#xe901;" glyph-name="auditor" horiz-adv-x="1205" d="M886.212 432.941h158.494c10.396 0 18.824 8.428 18.824 18.824s-8.428 18.824-18.824 18.824h-148.047c-2.704-12.752-6.193-25.325-10.447-37.647zM848.753 357.647h195.953c10.396 0 18.824 8.428 18.824 18.824s-8.428 18.824-18.824 18.824h-174.118c-6.416-13.030-13.711-25.608-21.835-37.647zM37.647 903.529c0 10.396 8.428 18.824 18.824 18.824h470.588c10.396 0 18.824 8.428 18.824 18.824s-8.428 18.824-18.824 18.824h-470.588c-31.188 0-56.471-25.283-56.471-56.471v-621.176l37.647 27.012v594.165zM1148.235 960h-505.6c-32.555 0.052-59.002-26.269-59.106-58.824v-82.353c-105.212-0.002-201.696-58.502-250.347-151.79s-41.399-205.888 18.817-292.163l-25.412-20.235-33.788 43.671c-13.513 17.639-38.72 21.084-56.471 7.718l-224.753-161.318c-8.17-6.149-9.937-17.697-3.979-26.007s17.462-10.345 25.908-4.581l225.412 161.694c1.253 0.967 3.049 0.758 4.047-0.471l94.118-121.224c0.473-0.579 0.679-1.332 0.565-2.071-0.073-0.695-0.41-1.335-0.941-1.788l-349.176-263.435c-8.317-6.264-9.981-18.083-3.718-26.4s18.083-9.981 26.4-3.718l349.271 263.529c17.547 13.598 20.864 38.794 7.435 56.471l-37.647 48.188 25.976 20.612c84.221-91.933 218.769-117.744 331.031-63.503s175.659 175.691 155.977 298.806c-19.682 123.115-117.784 218.747-241.361 235.285v84.706c-0.052 5.765 2.228 11.306 6.323 15.364s9.655 6.291 15.419 6.189h503.059c11.726 0 21.261-9.451 21.365-21.176v-672.941c-0.104-11.763-9.696-21.229-21.459-21.176h-726.871c-4.568-6.472-10.089-12.216-16.376-17.035l-27.388-20.612h142.682v-65.882h-75.294c-10.396 0-18.824-8.428-18.824-18.824s8.428-18.824 18.824-18.824h320c10.396 0 18.824 8.428 18.824 18.824s-8.428 18.824-18.824 18.824h-75.294v65.882h461.176c31.188 0 56.471 25.283 56.471 56.471v677.647c0 31.188-25.283 56.471-56.471 56.471zM828.235 536.471c0-135.147-109.559-244.706-244.706-244.706s-244.706 109.559-244.706 244.706c0 135.147 109.559 244.706 244.706 244.706s244.706-109.559 244.706-244.706zM555.294 103.529v65.882h94.118v-65.882h-94.118zM902.212 508.235h142.494c10.396 0 18.824 8.428 18.824 18.824s-8.428 18.824-18.824 18.824h-141.176c0-3.106 0-6.212 0-9.412 0-9.412-0.471-18.824-1.318-28.235zM1044.706 583.529c10.396 0 18.824 8.428 18.824 18.824s-8.428 18.824-18.824 18.824h-152.659c3.427-12.375 6.099-24.948 8-37.647h144.659zM1044.706 658.824c10.396 0 18.824 8.428 18.824 18.824s-8.428 18.824-18.824 18.824h-184.188c7.097-12.121 13.385-24.697 18.824-37.647h165.365zM1044.706 734.118c10.396 0 18.824 8.428 18.824 18.824s-8.428 18.824-18.824 18.824h-244.706c12.587-11.607 24.231-24.195 34.824-37.647h209.882z" />
<glyph unicode="&#xe902;" glyph-name="client1" horiz-adv-x="1078" d="M1030.461 179.794c-11.45 60.519-57.248 107.953-116.131 121.038l-197.914 47.434-68.697 93.232c45.798 37.62 81.783 91.597 83.418 155.387 14.721 11.45 53.977 49.070 53.977 88.325-1.636 37.62-26.17 40.891-34.349 40.891 0 0-1.636 0-1.636 0l6.543 57.248c3.271 68.697-27.806 94.868-50.705 106.317 22.899 31.077 17.992 50.705 16.357 52.341l-4.907 14.721-13.085-9.814c-14.721-9.814-29.442-14.721-42.527-14.721-9.814 0-14.721 3.271-16.357 3.271-44.163 19.628-135.759 24.535-140.666 24.535-94.868 0-124.31-47.434-130.852-68.697-80.147-9.814-76.876-89.961-75.24-129.217 0-6.543 0-13.085 0-17.992 0-6.543 0-14.721 1.636-24.535-11.45 0-32.713-6.543-32.713-40.891-1.636-39.256 39.256-75.24 53.977-88.325 3.271-62.155 37.62-117.767 83.418-153.751l-67.062-94.868-178.286-40.891c-60.519-13.085-106.317-62.155-116.131-122.674l-42.527-230.627h1077.895l-47.434 232.263zM382.743 868.403h9.814l1.636 9.814c0 1.636 13.085 57.248 109.589 57.248 1.636 0 91.597-4.907 130.852-21.263 1.636 0 11.45-4.907 26.17-4.907 11.45 0 21.263 1.636 32.713 6.543-3.271-6.543-9.814-14.721-17.992-22.899l-17.992-17.992 24.535-3.271c1.636 0 52.341-6.543 49.070-85.054l-6.543-60.519-27.806-11.45c-6.543 8.178-16.357 11.45-21.263 13.085-9.814 1.636-24.535 3.271-40.891 3.271-27.806 0-53.977-3.271-55.612-3.271-21.263-3.271-34.349-9.814-42.527-22.899 0-1.636 0-1.636-1.636-3.271h-21.263c0 1.636 0 1.636-1.636 3.271-6.543 13.085-21.263 21.263-42.527 22.899-1.636 0-27.806 3.271-55.612 3.271-16.357 0-29.442-1.636-40.891-3.271-4.907-1.636-14.721-4.907-21.263-13.085l-32.713 13.085c0 6.543-1.636 11.45-1.636 16.357s0 11.45 0 19.628c3.271 52.341 4.907 101.41 65.426 104.682zM682.067 677.032l-1.636-11.45c-4.907-27.806-6.543-32.713-19.628-37.62 0 0-16.357-3.271-34.349-3.271-21.263 0-35.984 4.907-44.163 11.45-3.271 4.907-13.085 22.899-21.263 44.163 0 0-3.271 8.178 0 13.085s11.45 8.178 22.899 9.814c0 0 26.17 3.271 52.341 3.271 14.721 0 27.806-1.636 35.984-3.271 0 0 14.721-3.271 9.814-26.17zM492.331 678.668c-8.178-21.263-17.992-39.256-21.263-42.527-8.178-8.178-22.899-11.45-44.163-11.45-17.992 0-32.713 3.271-34.349 3.271-14.721 4.907-16.357 9.814-21.263 37.62l-1.636 11.45c-3.271 21.263 8.178 26.17 11.45 27.806 8.178 1.636 21.263 3.271 35.984 3.271 26.17 0 52.341-3.271 52.341-3.271 11.45-1.636 19.628-4.907 22.899-9.814 3.271-6.543 0-14.721 0-16.357zM345.123 598.521v6.543l-4.907 3.271c-13.085 9.814-49.070 44.163-49.070 71.969 0 16.357 6.543 16.357 11.45 16.357 6.543 0 11.45 3.271 16.357 6.543l27.806-11.45c-1.636-6.543-1.636-13.085 0-19.628l1.636-11.45c4.907-29.442 8.178-49.070 39.256-57.248 0 0 17.992-3.271 39.256-3.271 29.442 0 50.705 6.543 62.155 21.263l1.636 1.636c0 1.636 14.721 21.263 22.899 47.434 0 0 1.636 4.907 3.271 8.178h17.992c1.636-4.907 3.271-6.543 3.271-8.178 9.814-26.17 22.899-47.434 24.535-47.434l1.636-1.636c13.085-13.085 34.349-21.263 62.155-21.263 21.263 0 39.256 3.271 40.891 4.907 31.077 9.814 32.713 27.806 37.62 57.248l1.636 11.45c1.636 8.178 1.636 14.721 0 19.628l26.17 9.814c3.271-1.636 6.543-3.271 9.814-3.271h4.907c1.636 0 3.271 0 4.907 0 3.271 0 9.814 0 9.814-17.992 0-27.806-34.349-60.519-49.070-71.969l-4.907-1.636v-6.543c0-103.046-109.589-188.1-181.557-188.1-80.147 0-179.922 83.418-181.557 184.829zM27.806-26.298l37.62 201.185c9.814 50.705 47.434 91.597 98.139 103.046l171.743 39.256 91.597-343.487h-399.099zM484.153-26.298l21.263 225.72h42.527l21.263-225.72h-85.054zM551.215 223.957h-50.705l-24.535 42.527h99.775l-24.535-42.527zM593.742-26.298l-21.263 235.534 35.984 63.79c1.636 3.271 1.636 8.178 0 11.45s-6.543 6.543-9.814 6.543h-142.302c-4.907 0-8.178-1.636-9.814-6.543-1.636-3.271-1.636-8.178 0-11.45l35.984-63.79-21.263-235.534h-6.543l-94.868 356.572 67.062 93.232c32.713-21.263 68.697-34.349 103.046-34.349 31.077 0 67.062 13.085 101.41 35.984l67.062-91.597-96.503-361.479h-8.178v1.636zM718.051 322.096l189.736-44.163c50.705-11.45 88.325-52.341 98.139-101.41l39.256-201.185h-420.363l93.232 346.758z" />
<glyph unicode="&#xe903;" glyph-name="settings_ic" d="M961.8 520.4l-3.8 24-73.3 24.5c-6.4 19.8-14.4 39.2-23.9 57.7l34.6 69.1-14.2 19.8c-28.8 39.3-63.2 73.7-102.3 102.1l-19.7 14.2-69.1-34.6c-18.6 9.5-37.9 17.5-57.7 23.9l-24.4 73.1-23.8 3.7c-26.5 4.2-49.4 6.2-72.2 6.2-22.2 0-45.2-2-72.3-6.3l-24-3.8-24.4-73.4c-20.2-6.6-39.6-14.6-57.7-23.8l-69 34.7-19.7-14.2c-39.2-28.4-73.6-62.7-102.2-102.1l-14.2-19.8 34.6-69.1c-9.4-18.5-17.4-37.8-23.8-57.6l-73.3-24.3-3.8-24c-4.2-26.5-6.2-50.1-6.2-72.4 0-22.4 2-46 6.2-72.3l3.8-24 73.3-24.5c6.4-19.8 14.4-39.2 23.9-57.7l-34.4-68.9 14.2-19.6c14.8-20.6 30.1-38.7 46.7-55.4 15.5-15.6 33.6-30.9 55.3-46.8l19.7-14.2 69 34.6c18.6-9.5 37.9-17.6 57.7-23.9l24.4-73.4 24-3.8c26.3-4.2 49.9-6.2 72.2-6.2s45.9 2 72.3 6.2l24 3.8 24.4 73.4c19.6 6.4 38.9 14.4 57.6 23.8l69.1-34.6 19.7 14.2c21.5 15.5 39.6 30.8 55.3 46.8 16.3 16.3 31.5 34.5 46.7 55.4l14.2 19.8-34.6 69.1c9.5 18.5 17.5 37.8 23.9 57.7l73.3 24.5 3.8 24c4.2 26.3 6.2 49.9 6.2 72.2 0.3 22.1-1.7 45.8-6.1 72.2zM896.3 448.8v-0.5c0-13.5-0.9-27.2-2.6-41.9l-35.4-11.8-31.3-10.6-9.7-31.5c-5.5-18.2-12.8-35.9-21.7-52.7l-15.4-29.1 31.4-62.7c-9.2-11.6-18.3-21.9-27.8-31.4l-0.2-0.2c-9.3-9.4-19.6-18.5-31.2-27.6l-62.5 31.3-29-15.1c-17.1-8.9-35.1-16.3-53.4-22.1l-31.3-9.8-10.2-31-11.8-35.4c-14.6-1.8-28.4-2.6-41.9-2.6-13.4 0-27.2 0.9-41.9 2.6l-11.8 35.4-10.3 31.3-31.5 9.7c-18.6 5.7-36.3 13-52.7 21.7l-29.2 15.2-62.8-31.3c-11.6 9.2-21.9 18.3-31.4 27.8-9.7 9.7-18.8 20-27.8 31.4l31.2 62.5-15.2 29c-9.1 17.4-16.5 35.2-21.9 53l-9.7 31.5-66.6 22.1c-1.8 14.6-2.6 28.4-2.6 41.9s0.9 27.2 2.6 41.9l66.4 22.1 9.7 31.4c5.6 18.1 13 36 21.9 53.2l15.2 29-31.2 62.6c17.5 21.8 37.4 41.7 59.2 59.2l62.6-31.3 29.1 15.3c16.8 8.8 34.7 16.2 53.2 22l31.3 9.8 10.4 31.1 11.8 35.4c15.1 1.7 28.8 2.6 41.8 2.6 13.4 0 27.2-0.9 41.8-2.6l22.2-66.3 31.3-9.7c18.2-5.7 36.1-13.1 53.2-21.9l29-15.2 62.5 31.3c21.8-17.5 41.8-37.4 59.5-59.3l-31.2-62.5 15-28.9c8.9-17.2 16.4-35.2 22.1-53.5l9.8-31.3 66.5-22.2c1.9-15 2.7-28.5 2.5-41.3zM512.2 622.3c-96.1 0-174.3-78.2-174.3-174.3s78.2-174.3 174.3-174.3c96.1 0 174.3 78.2 174.3 174.3s-78.2 174.3-174.3 174.3zM584.5 375.7c-19.3-19.3-45-30-72.3-30s-53 10.6-72.3 30c-19.3 19.3-30 45-30 72.3s10.6 53 30 72.3c19.3 19.3 45 30 72.3 30s53-10.6 72.3-30c19.3-19.4 30-45 30-72.3s-10.7-53-30-72.3z" />
<glyph unicode="&#xe904;" glyph-name="testing_factor_ic" d="M982.857-64h-941.714c-22.743 0-41.143 18.4-41.143 41.143v941.714c0 22.743 18.4 41.143 41.143 41.143s41.143-18.4 41.143-41.143v-900.571h900.571c22.743 0 41.143-18.4 41.143-41.143s-18.4-41.143-41.143-41.143zM229.943 606.857c-44.914-1.029-81.6-37.829-82.514-82.743-0.686-34.4 19.086-64.229 48-78.057v-326.057c0-20.229 16.343-36.571 36.571-36.571s36.571 16.343 36.571 36.571v326.057c28.343 13.6 48 42.629 48 76.229 0 47.429-38.971 85.714-86.629 84.571zM547.086 741.714c-44.914-1.029-81.6-37.829-82.514-82.743-0.686-34.4 19.086-64.229 48-78.057v-460.914c0-20.229 16.343-36.571 36.571-36.571s36.571 16.343 36.571 36.571v460.914c28.343 13.6 48 42.629 48 76.229 0 47.429-38.971 85.714-86.629 84.571zM950.857 509.714c0 47.429-38.971 85.714-86.629 84.571-44.914-1.029-81.6-37.829-82.514-82.743-0.686-34.4 19.086-64.229 48-78.057v-313.486c0-20.229 16.343-36.571 36.571-36.571s36.571 16.343 36.571 36.571v313.486c28.343 13.6 48 42.629 48 76.229z" />
<glyph unicode="&#xe905;" glyph-name="unselected_ic" d="M512 928c-264.96 0-480-215.040-480-480s215.040-480 480-480c264.96 0 480 215.040 480 480s-215.040 480-480 480zM512 64c-212.16 0-384 171.84-384 384s171.84 384 384 384c212.16 0 384-171.84 384-384s-171.84-384-384-384z" />
<glyph unicode="&#xe906;" glyph-name="upload_box_ic" d="M1020.779 537.026l-0.273 1.081-153.19 385.148c-6.827 21.75-27.17 36.745-50.244 36.745h-620.954c-23.211 0-43.827-15.265-50.381-37.285l-143.223-381.231-0.41-0.946-0.273-1.081c-1.775-6.62-2.321-13.374-1.365-19.994-0.137-2.161-0.273-4.323-0.273-6.484v-494.303c0-45.256 37.274-82.136 83.012-82.136h856.337c45.739 0 83.012 36.88 83.149 82.136v494.303c0 1.756 0 3.512-0.137 4.998 0.546 6.62 0 12.969-1.775 19.048zM616.913 595.116l-0.41-21.209c-1.092-60.656-43.418-101.454-105.267-101.454-30.174 0-56.115 9.592-74.82 27.829s-28.945 43.635-29.491 73.625l-0.41 21.209h-280.986l108.544 261.134h545.041l111.548-261.134h-273.749zM104.913 491.365h214.767c33.178-77.138 103.765-122.664 191.693-122.664 46.012 0 88.747 12.699 123.29 36.745 30.31 21.074 53.931 50.525 69.222 85.919h213.675v-451.073h-812.646v451.073z" />
<glyph unicode="&#xe907;" glyph-name="upload_ic" d="M488.5 885.9c6.7 6.7 15.6 10.1 24.5 10.1s17.7-3.4 24.5-10.1l155.8-155.9c13.5-13.5 13.5-35.4 0-48.9-6.5-6.5-15.2-10.1-24.4-10.1s-17.9 3.6-24.4 10.1l-96.9 96.9v-577.8c0-19.1-15.5-34.6-34.6-34.6s-34.6 15.5-34.6 34.6v577.8l-96.9-96.9c-13.5-13.5-35.4-13.5-48.8 0-13.5 13.5-13.5 35.4-0.1 48.9l155.9 155.9zM925.4 319.6c-19.1 0-34.6-15.5-34.6-34.6v-195.4c0-11.3-9.2-20.6-20.6-20.6h-716.5c-11.3 0-20.6 9.2-20.6 20.6v195.5c0 19.1-15.5 34.6-34.6 34.6s-34.5-15.6-34.5-34.6v-222.9c0-34.3 27.9-62.1 62.1-62.1h771.8c34.3 0 62.1 27.9 62.1 62.1v222.9c0 19-15.5 34.5-34.6 34.5z" />
<glyph unicode="&#xe908;" glyph-name="lock" d="M676.267 488.747h-345.6c-11.782 0-21.333-9.551-21.333-21.333v0-234.667c0-11.782 9.551-21.333 21.333-21.333v0h345.6c11.782 0 21.333 9.551 21.333 21.333v0 234.667c0 11.782-9.551 21.333-21.333 21.333v0zM502.891 243.413c-11.782 0-21.333 9.551-21.333 21.333s9.551 21.333 21.333 21.333c11.782 0 21.333-9.551 21.333-21.333v0c0-11.782-9.551-21.333-21.333-21.333v0zM523.221 335.979v-17.067c0-11.782-9.551-21.333-21.333-21.333s-21.333 9.551-21.333 21.333v0 34.795c0 11.782 9.551 21.333 21.333 21.333v0c0.005 0 0.011 0 0.016 0 12.029 0 21.781 9.752 21.781 21.781s-9.752 21.781-21.781 21.781c-7.998 0-14.989-4.311-18.777-10.736l-0.055-0.102c-3.771-6.374-10.61-10.582-18.432-10.582-11.788 0-21.344 9.556-21.344 21.344 0 3.966 1.082 7.68 2.966 10.862l-0.054-0.099c11.384 19.255 32.040 31.967 55.664 31.967 35.594 0 64.448-28.854 64.448-64.448 0-27.943-17.783-51.732-42.649-60.668l-0.45-0.141zM624 616.747c0 11.782-9.551 21.333-21.333 21.333v0h-198.4c-11.782 0-21.333-9.551-21.333-21.333v0-85.333h241.067zM512 960c-282.77 0-512-229.23-512-512s229.23-512 512-512c282.77 0 512 229.23 512 512v0c0 282.77-229.23 512-512 512v0zM740.267 232.747c0-35.346-28.654-64-64-64v0h-345.6c-35.346 0-64 28.654-64 64v0 234.667c0 35.346 28.654 64 64 64v0h9.6v85.333c0 35.346 28.654 64 64 64v0h198.4c35.346 0 64-28.654 64-64v0-85.333h9.6c35.346 0 64-28.654 64-64v0z" />
<glyph unicode="&#xe909;" glyph-name="field_work_ic" d="M572 356h-376c-19.9 0-36-16.1-36-36s16.1-36 36-36h376c19.9 0 36 16.1 36 36s-16.1 36-36 36zM696 632v-624h-624v624h624zM696 704h-624c-39.8 0-72-32.2-72-72v-624c0-39.8 32.2-72 72-72h624c39.8 0 72 32.2 72 72v624c0 39.8-32.2 72-72 72zM952 960h-592.3c-19.9 0-36-16.1-36-36s16.1-36 36-36h592.3v-596c0-19.9 16.1-36 36-36s36 16.1 36 36v596c0 39.8-32.2 72-72 72zM824 832h-660c-19.9 0-36-16.1-36-36s16.1-36 36-36h660v-660c0-19.9 16.1-36 36-36s36 16.1 36 36v660c0 39.8-32.2 72-72 72z" />
<glyph unicode="&#xe90a;" glyph-name="complete" d="M512-64c-0.417-0.001-0.912-0.002-1.407-0.002-140.943 0-268.497 57.325-360.619 149.932l-0.022 0.022c-92.641 92.145-149.975 219.708-149.975 360.662 0 0.487 0.001 0.974 0.002 1.46v-0.075c-0.001 0.408-0.002 0.89-0.002 1.373 0 140.951 57.334 268.511 149.952 360.631l0.023 0.023c92.143 92.629 219.698 149.954 360.641 149.954 0.494 0 0.989-0.001 1.483-0.002h-0.076c0.417 0.001 0.912 0.002 1.407 0.002 140.943 0 268.497-57.325 360.619-149.932l0.022-0.022c92.641-92.142 149.975-219.702 149.975-360.654 0-0.483-0.001-0.965-0.002-1.447v0.074c0.001-0.411 0.002-0.898 0.002-1.386 0-140.954-57.334-268.517-149.952-360.64l-0.023-0.023c-92.143-92.629-219.698-149.954-360.641-149.954-0.494 0-0.989 0.001-1.483 0.002h0.076zM261.141 466.197c-3.93-0.007-7.609-1.076-10.767-2.934l0.1 0.054c-6.421-3.757-10.666-10.62-10.666-18.475 0-3.927 1.061-7.607 2.913-10.767l-0.055 0.101 118.571-205.461c3.286-5.615 8.923-9.549 15.526-10.462l0.112-0.013c0.843-0.122 1.816-0.192 2.805-0.192 0.011 0 0.023 0 0.034 0h-0.002c5.832 0 11.112 2.365 14.933 6.187v0l383.147 379.968c3.919 3.822 6.362 9.142 6.4 15.033v0.007c0 0.046 0.001 0.1 0.001 0.155 0 5.844-2.364 11.136-6.188 14.971l0.001-0.001c-3.845 3.946-9.209 6.395-15.146 6.4h-0.001c-0.011 0-0.025 0-0.039 0-5.85 0-11.149-2.354-15.003-6.167l0.002 0.002-363.499-360.533-104.725 181.504c-3.758 6.407-10.611 10.642-18.453 10.645h-0.001z" />
<glyph unicode="&#xe90b;" glyph-name="tick" horiz-adv-x="1365" d="M402.773-53.76c-7.396 0-14.791 2.844-19.911 8.533l-374.329 374.329c-11.378 11.378-11.378 29.013 0 40.391s29.013 11.378 40.391 0l354.418-354.418 907.947 907.947c11.378 11.378 29.013 11.378 40.391 0s11.378-29.013 0-40.391l-928.996-927.858c-5.12-5.689-12.516-8.533-19.911-8.533z" />
<glyph unicode="&#xe90c;" glyph-name="licence_ic" d="M926.971 498.514c-118.743 118.743-305.486 127.771-434.629 27.314l-421.943 422.057c-16.114 16.114-42.171 16.114-58.171 0-16.114-16.114-16.114-42.171 0-58.171l422.057-422.057c-100.457-129.143-91.429-315.886 27.314-434.629 128.571-128.571 336.914-128.571 465.486 0s128.457 336.914-0.114 465.486zM868.8 91.2c-96.457-96.457-252.686-96.457-349.143 0s-96.457 252.686 0 349.143c96.457 96.457 252.686 96.457 349.143 0s96.343-252.686 0-349.143zM328.914 690.857l87.314 87.314c16.114 16.114 16.114 42.171 0 58.171-16.114 16.114-42.171 16.114-58.171 0l-87.314-87.314 58.171-58.171zM306.286 888c16.114 16.114 16.114 42.171 0 58.171-16 16.114-42.057 16.114-58.171 0l-87.314-87.314 58.171-58.171 87.314 87.314z" />
<glyph unicode="&#xe90d;" glyph-name="forgot-password" horiz-adv-x="910" d="M812.698 651.175c35.907 0 65.016-29.109 65.016-65.016v0-552.635c0-35.907-29.109-65.016-65.016-65.016v0h-715.175c-35.907 0-65.016 29.109-65.016 65.016v0 552.635c0 35.907 29.109 65.016 65.016 65.016v0h715.175zM812.698 683.683h-715.175c-53.861 0-97.524-43.663-97.524-97.524v0-552.635c0-53.861 43.663-97.524 97.524-97.524v0h715.175c53.861 0 97.524 43.663 97.524 97.524v0 552.635c0 53.861-43.663 97.524-97.524 97.524v0zM720.701 651.175h-32.508v182.695c0.003 0.293 0.005 0.638 0.005 0.984 0 50.713-40.745 91.909-91.284 92.638l-0.069 0.001h-271.766c-50.43-0.728-91.032-41.779-91.032-92.314 0-0.46 0.003-0.92 0.010-1.379l-0.001 0.069v-182.695h-32.508v182.695c-0.004 0.389-0.007 0.847-0.007 1.307 0 68.487 55.154 124.093 123.468 124.823l0.069 0.001h272.742c68.562-0.733 123.859-56.483 123.859-125.149 0-0.345-0.001-0.69-0.004-1.035v0.053zM478.517 203.54h-32.508v75.418h16.254c0.428-0.005 0.933-0.008 1.439-0.008 71.815 0 130.032 58.217 130.032 130.032s-58.217 130.032-130.032 130.032c-40.798 0-77.208-18.789-101.048-48.187l-0.19-0.242-25.031 20.48c30.038 37.208 75.646 60.808 126.767 60.808 89.768 0 162.54-72.771 162.54-162.54 0-84.728-64.829-154.314-147.589-161.861l-0.634-0.047zM446.009 127.797h32.508v-59.164h-32.508v59.164z" />
<glyph unicode="&#xe90e;" glyph-name="materiality_ic" d="M905.829 960h-787.543c-24.343 0-44.229-20-44.229-44.343v-935.2c0-24.457 19.886-44.457 44.229-44.457h787.543c24.343 0 44.229 20 44.229 44.457v935.2c-0.114 24.457-19.886 44.343-44.229 44.343zM861.6 24.8h-699.2v846.4h699.086l0.114-846.4zM296.8 477.6h431.429c24.343 0 44.229 19.886 44.229 44.229v211.886c0 24.343-19.886 44.229-44.229 44.229h-431.429c-24.343 0-44.229-19.886-44.229-44.229v-211.657c0-24.571 19.886-44.457 44.229-44.457zM340.914 689.486h343.086v-123.314h-343.086v123.314zM261.714 225.143h26.857v-26.857c0-24.343 19.886-44.229 44.229-44.229s44.229 19.886 44.229 44.229v26.857h26.743c24.343 0 44.229 19.886 44.229 44.229s-19.886 44.229-44.229 44.229h-26.743v26.743c0 24.343-19.886 44.229-44.229 44.229s-44.229-19.886-44.229-44.229v-26.743h-26.857c-24.343 0-44.229-19.886-44.229-44.229 0.114-24.343 20-44.229 44.229-44.229zM620.114 384.457c-24.343 0-44.229-19.886-44.229-44.229s19.886-44.229 44.229-44.229h142.171c24.343 0 44.229 19.886 44.229 44.229s-19.886 44.229-44.229 44.229h-142.171zM762.286 193.829h-142.171c-24.343 0-44.229-19.886-44.229-44.229s19.886-44.229 44.229-44.229h142.171c24.343 0 44.229 19.886 44.229 44.229s-20 44.229-44.229 44.229z" />
<glyph unicode="&#xe90f;" glyph-name="minus_circle_ic" d="M512 960c-282.8 0-512-229.2-512-512s229.2-512 512-512c282.8 0 512 229.2 512 512s-229.2 512-512 512zM823.1 136.9c-40.4-40.4-87.5-72.2-139.9-94.3-54.2-23-111.8-34.6-171.2-34.6s-117 11.6-171.2 34.5c-52.4 22.2-99.4 53.9-139.9 94.3-40.4 40.4-72.2 87.5-94.3 139.9-23 54.3-34.6 111.9-34.6 171.3s11.6 117 34.5 171.2c22.2 52.4 53.9 99.4 94.3 139.9 40.4 40.4 87.5 72.2 139.9 94.3 54.3 23 111.9 34.6 171.3 34.6s117-11.6 171.2-34.5c52.4-22.2 99.4-53.9 139.9-94.3 40.4-40.4 72.2-87.5 94.3-139.9 23-54.3 34.6-111.9 34.6-171.3s-11.6-117-34.5-171.2c-22.2-52.4-53.9-99.5-94.4-139.9zM796.5 412h-569c-19.9 0-36 16.1-36 36s16.1 36 36 36h569c19.9 0 36-16.1 36-36s-16.1-36-36-36z" />
<glyph unicode="&#xe910;" glyph-name="notification_inactive_ic" d="M512-23.843c55.216 0 100.392 45.176 100.392 100.392h-200.784c0-55.216 45.176-100.392 100.392-100.392zM813.176 277.333v250.98c0 154.102-81.82 283.106-225.882 317.239v34.133c0 41.663-33.631 75.294-75.294 75.294s-75.294-33.631-75.294-75.294v-34.133c-143.561-34.133-225.882-162.635-225.882-317.239v-250.98l-100.392-100.392v-50.196h803.137v50.196l-100.392 100.392zM712.784 227.137h-401.569v301.176c0 124.486 75.796 225.882 200.784 225.882s200.784-101.396 200.784-225.882v-301.176z" />
<glyph unicode="&#xe911;" glyph-name="open_btn" d="M321.009 630.114h383.201c15.319 0 27.789 16.45 27.789 36.657s-12.471 36.657-27.789 36.657h-383.278c-15.319 0-27.789-16.45-27.789-36.657 0.077-20.309 12.471-36.657 27.866-36.657zM321.009 483.885h383.201c15.319 0 27.789 16.45 27.789 36.657s-12.471 36.657-27.789 36.657h-383.278c-15.319 0-27.789-16.45-27.789-36.657 0.077-20.207 12.471-36.657 27.866-36.657zM321.009 337.714h383.201c15.319 0 27.789 16.45 27.789 36.657s-12.471 36.657-27.789 36.657h-383.278c-15.319 0-27.789-16.45-27.789-36.657 0.077-20.309 12.471-36.657 27.866-36.657z" />
<glyph unicode="&#xe912;" glyph-name="new-business" horiz-adv-x="1172" d="M1172.41 673.76c-0.161 54.162-43.943 98.044-98.051 98.368h-227.364v142.977c-0.48 24.898-20.777 44.898-45.745 44.898-0.204 0-0.407-0.001-0.611-0.004h-428.899c-12.852-0.147-24.4-5.604-32.578-14.275l-0.021-0.022c-8.296-8.064-13.443-19.328-13.443-31.795 0-0.182 0.001-0.364 0.003-0.545v0.028-142.977h-228.763c-53.055-0.941-95.836-43.622-96.937-96.549l-0.002-0.104v-639.392c0.322-54.197 44.171-98.046 98.337-98.368h1059.775c7.896 0 14.298 6.401 14.298 14.298v0 213.607zM354.297 914.247c0 0.048-0.001 0.104-0.001 0.16 0 4.619 1.856 8.805 4.864 11.852l-0.002-0.002c3.117 3.179 7.456 5.15 12.256 5.15 0.115 0 0.229-0.001 0.343-0.003h428.913c0.269 0.016 0.584 0.026 0.901 0.026 4.481 0 8.524-1.874 11.389-4.881l0.006-0.006c3.067-3.202 5.001-7.51 5.146-12.268l0.001-0.028v-142.977h-463.817zM96.938 742.675h977.104c0.002 0 0.003 0 0.005 0 38.233 0 69.283-30.751 69.767-68.869v-64.386h-1115.219v64.34c0.162 38.469 31.304 69.611 69.757 69.773h0.016zM514.717 580.825h142.977v-50.614h-142.977zM28.595 34.368v64.34h557.61v28.595h-557.61v453.522h457.526v-64.054c0-7.896 6.401-14.298 14.298-14.298v0h171.572c7.896 0 14.298 6.401 14.298 14.298v0 64.054h457.526v-335.996c-17.694 17.673-42.126 28.603-69.112 28.603-0.434 0-0.866-0.003-1.299-0.008l0.066 0.001h-74.348c20.604 19.122 33.457 46.35 33.457 76.581 0 0.019 0 0.039 0 0.058v-0.003 85.786c-0.162 51.735-42.058 93.631-93.777 93.793h-116.399v-178.721c0-0.016 0-0.036 0-0.055 0-30.23 12.852-57.459 33.39-76.52l0.066-0.061h-71.774c-54.149-0.646-97.796-44.692-97.796-98.933 0-0.002 0-0.005 0-0.007v0-210.748h-587.921c-38.405 0.321-69.452 31.368-69.772 69.742v0.031zM927.634 194.216l-50.614 51.472h101.228zM1003.983 411.541h-88.932c-36.008 0-65.197 29.19-65.197 65.197v0 24.878h87.788c35.942-0.162 65.036-29.255 65.197-65.182v-0.015zM850.998 409.539c16.81-16.42 39.816-26.56 65.191-26.594h87.794v-32.027c0.091-1.399 0.143-3.033 0.143-4.679 0-42.325-34.311-76.636-76.636-76.636s-76.636 34.311-76.636 76.636c0 1.646 0.052 3.28 0.154 4.901l-0.011-0.222zM1143.815-35.119h-428.93v210.462c0 38.85 31.494 70.345 70.345 70.345v0h52.615l76.636-77.493v-95.223c0-7.896 6.401-14.298 14.298-14.298v0c7.896 0 14.298 6.401 14.298 14.298v0 95.223l76.35 77.493h55.189c38.355-0.644 69.201-31.887 69.201-70.335 0-0.003 0-0.007 0-0.010v0.001z" />
<glyph unicode="&#xe913;" glyph-name="password_ic" d="M844.907 727.36c-18.453 45.547-44.587 86.293-77.547 120.96-32.96 34.987-71.573 62.613-114.773 82.027-44.693 19.947-91.947 30.080-140.587 30.080s-96-10.133-140.693-30.187c-43.2-19.307-81.707-46.933-114.773-81.92-33.28-35.093-59.413-75.84-77.547-120.96-18.88-46.72-28.48-96.427-28.48-147.84v-501.547c0-40.96 31.68-74.24 70.72-74.24h581.227c39.040 0 70.72 33.28 70.507 74.24v442.667l0.213 20.373v38.507c0.213 51.2-9.387 100.907-28.267 147.84zM399.68 863.147h0.213l1.387 0.533c34.88 15.893 72.107 23.893 110.613 23.893 38.293 0 75.627-8.107 110.72-23.68 34.027-15.36 64.96-37.44 91.733-65.493 26.987-28.48 48-61.44 62.827-98.133 15.467-38.187 23.253-78.72 23.253-120.747v-31.573h-577.067v31.68c0 41.6 7.787 82.133 23.253 120.64 14.933 37.013 36.16 69.973 62.827 98.027 26.56 27.947 56.747 49.813 90.24 64.853zM800.747 475.307v-397.227c0-0.64-0.107-1.173-0.213-1.493h-576.96c-0.107 0.32-0.213 0.853-0.213 1.493v397.227h577.387zM478.293 311.467v-95.467c0-18.667 15.147-33.813 33.813-33.813s33.813 15.147 33.813 33.813v95.68c17.92 11.52 28.693 30.933 28.693 52.48 0 34.56-28.053 62.613-62.613 62.613s-62.613-28.053-62.613-62.613c0.107-21.227 11.093-41.28 28.907-52.693z" />
<glyph unicode="&#xe914;" glyph-name="plus_circle_ic" d="M512 960c-282.8 0-512-229.2-512-512s229.2-512 512-512c282.8 0 512 229.2 512 512s-229.2 512-512 512zM823.1 136.9c-40.4-40.4-87.5-72.2-139.9-94.3-54.2-23-111.8-34.6-171.2-34.6s-117 11.6-171.2 34.5c-52.4 22.2-99.4 53.9-139.9 94.3-40.4 40.4-72.2 87.5-94.3 139.9-23 54.3-34.6 111.9-34.6 171.3s11.6 117 34.5 171.2c22.2 52.4 53.9 99.4 94.3 139.9 40.4 40.4 87.5 72.2 139.9 94.3 54.3 23 111.9 34.6 171.3 34.6s117-11.6 171.2-34.5c52.4-22.2 99.4-53.9 139.9-94.3 40.4-40.4 72.2-87.5 94.3-139.9 23-54.3 34.6-111.9 34.6-171.3s-11.6-117-34.5-171.2c-22.2-52.4-53.9-99.5-94.4-139.9zM732 483.5h-183.5v183.5c0 19.9-16.1 36-36 36s-36-16.1-36-36v-183.5h-184.5c-19.9 0-36-16.1-36-36s16.1-36 36-36h184.5v-182.5c0-19.9 16.1-36 36-36s36 16.1 36 36v182.5h183.5c19.9 0 36 16.1 36 36s-16.1 36-36 36z" />
<glyph unicode="&#xe915;" glyph-name="preview_ic" d="M889 896h-753c-39.7 0-72-32.3-72-72v-752c0-39.7 32.3-72 72-72h277c19.9 0 36 16.1 36 36s-16.1 36-36 36h-277v752h753v-752h-84c-19.9 0-36-16.1-36-36s16.1-36 36-36h84c39.7 0 72 32.3 72 72v752c0 39.7-32.3 72-72 72zM641 36c0-12.862 6.862-24.746 18-31.177s24.862-6.431 36 0c11.138 6.431 18 18.315 18 31.177s-6.862 24.746-18 31.177c-11.138 6.431-24.862 6.431-36 0s-18-18.315-18-31.177zM677 576c-19.9 0-36-16.1-36-36v-376c0-19.9 16.1-36 36-36s36 16.1 36 36v376c0 19.9-16.1 36-36 36zM541 704h-312c-19.9 0-36-16.1-36-36s16.1-36 36-36h312c19.9 0 36 16.1 36 36s-16.1 36-36 36zM413 512h-184c-19.9 0-36-16.1-36-36s16.1-36 36-36h184c19.9 0 36 16.1 36 36s-16.1 36-36 36zM413 320h-184c-19.9 0-36-16.1-36-36s16.1-36 36-36h184c19.9 0 36 16.1 36 36s-16.1 36-36 36z" />
<glyph unicode="&#xe916;" glyph-name="print_ic" d="M870.979 763.299h-127.566v118.599c0 43.101-35.001 78.102-78.102 78.102h-323.977c-43.101 0-78.102-35.001-78.102-78.102v-118.599h-127.566c-74.92 0-135.666-62.481-135.666-137.401v-295.051c0-74.92 60.746-137.401 135.666-137.401h69.713v-179.345c0-43.101 35.001-78.102 78.102-78.102h439.684c43.101 0 78.102 35.001 78.102 78.102v179.345h69.713c74.92 0 135.666 62.481 135.666 137.401v295.051c0 74.92-60.746 137.401-135.666 137.401zM303.729 881.898c0 20.827 16.777 37.605 37.605 37.605h323.977c20.827 0 37.605-16.777 37.605-37.605v-118.599h-399.186v118.599zM760.768 14.102c0-20.827-16.777-37.605-37.605-37.605h-439.684c-20.827 0-37.605 16.777-37.605 37.605v378.938h514.893v-378.938zM870.979 233.944h-69.713v180.502c0 11.281-8.967 19.092-20.249 19.092h-555.39c-11.281 0-20.249-8.099-20.249-19.092v-180.502h-69.713c-52.646 0-95.168 44.258-95.168 96.904v295.051c0 52.646 42.522 96.904 95.168 96.904h735.024c52.646 0 95.168-44.258 95.168-96.904v-295.051h0.289c0-52.646-42.522-96.904-95.168-96.904zM185.13 607.096h85.333v-85.333h-85.333v85.333z" />
<glyph unicode="&#xe917;" glyph-name="invite-sent" horiz-adv-x="1942" d="M1818.483 960h-1200.552c-68.255 0-123.586-55.331-123.586-123.586v0-194.207h-264.828c-9.751 0-17.655-7.904-17.655-17.655s7.904-17.655 17.655-17.655v0h264.828v-141.241h-476.69c-9.751 0-17.655-7.904-17.655-17.655s7.904-17.655 17.655-17.655v0h476.69v-141.241h-264.828c-9.751 0-17.655-7.904-17.655-17.655s7.904-17.655 17.655-17.655v0h264.828v-194.207c0-68.255 55.331-123.586 123.586-123.586v0h1200.552c68.255 0 123.586 55.331 123.586 123.586v0 776.828c0 68.255-55.331 123.586-123.586 123.586v0zM1818.483 924.69c20.023-0.026 38.46-6.795 53.167-18.158l-0.202 0.15-602.394-419.487c-14.198-9.939-31.828-15.882-50.847-15.882s-36.649 5.943-51.136 16.073l0.289-0.191-602.394 419.487c14.505 11.213 32.942 17.982 52.96 18.008h0.006zM1906.759 59.586c0-48.753-39.522-88.276-88.276-88.276v0h-1200.552c-48.753 0-88.276 39.522-88.276 88.276v0 776.828c0.085 16.033 4.535 31.010 12.223 43.822l-0.217-0.391 605.219-421.606c19.838-13.419 44.295-21.422 70.621-21.422s50.783 8.003 71.071 21.708l-0.45-0.287 606.632 421.606c7.47-12.422 11.921-27.398 12.005-43.408v-0.024z" />
<glyph unicode="&#xe918;" glyph-name="engagement" horiz-adv-x="832" d="M176 615.68h96v-96h-96v96zM176 423.68h96v-96h-96v96zM176 231.68h96v-96h-96v96zM336 551.68h352v-32h-352v32zM336 359.68h352v-32h-352v32zM336 167.68h352v-32h-352v32zM816-64h-800c-8.837 0-16 7.163-16 16v0 894.4c-0.005 0.384-0.007 0.837-0.007 1.291 0 61.473 49.384 111.411 110.643 112.308l0.084 0.001h480c4.502-0.011 8.574-1.844 11.52-4.8v0l224-231.36c2.772-2.873 4.48-6.789 4.48-11.104 0-0.034 0-0.068 0-0.101v0.005-760.64c0-0.015 0-0.033 0-0.051 0-8.386-6.452-15.265-14.662-15.945l-0.058-0.004zM32-32h768v738.24l-215.36 221.76h-473.92c-43.636-0.711-78.736-36.252-78.736-79.99 0-0.566 0.006-1.131 0.018-1.694l-0.001 0.084zM816 695.68h-240c-8.837 0-16 7.163-16 16v0 232.32h32v-216.32h224z" />
<glyph unicode="&#xe919;" glyph-name="dashboard_ic" horiz-adv-x="1092" d="M546.133 950.248c-301.653 0-546.133-250.232-546.133-558.983 0-182.87 85.76-345.215 218.453-447.186l0.107 0.218c6.507-5.131 14.72-8.297 23.573-8.297 21.227 0 38.4 17.577 38.4 39.303 0 14.411-7.573 26.967-18.88 33.845-40.32 31.443-75.52 69.545-104 112.561l47.147 27.84c16.32 9.608 21.867 31.006 12.48 47.71s-30.293 22.381-46.613 12.774l-47.147-27.84c-25.28 53.278-41.173 112.124-45.44 174.136h54.187c18.88 0 34.133 15.612 34.133 34.936s-15.253 34.936-34.133 34.936h-54.187c4.373 62.23 20.373 121.186 45.653 174.682l46.933-27.731c16.32-9.608 37.227-3.93 46.613 12.774s3.84 38.103-12.48 47.71l-46.827 27.622c33.28 50.003 75.52 93.237 124.373 127.3l26.987-47.928c9.387-16.704 30.293-22.381 46.613-12.774s21.867 31.006 12.48 47.71l-27.093 48.038c52.16 25.984 109.76 42.251 170.667 46.727v-55.462c0-19.324 15.253-34.936 34.133-34.936s34.133 15.612 34.133 34.936v55.462c60.587-4.476 118.080-20.743 170.133-46.509l-27.2-48.256c-9.387-16.704-3.84-38.103 12.48-47.71s37.227-3.93 46.613 12.774l27.2 48.256c49.067-34.063 91.413-77.406 124.8-127.627l-46.827-27.622c-16.32-9.608-21.867-31.006-12.48-47.71s30.293-22.381 46.613-12.774l46.933 27.731c25.387-53.387 41.28-112.452 45.653-174.682h-54.187c-18.88 0-34.133-15.612-34.133-34.936s15.253-34.936 34.133-34.936h54.187c-4.373-62.121-20.267-120.858-45.44-174.136l-47.147 27.84c-16.32 9.608-37.227 3.93-46.613-12.774s-3.84-38.103 12.48-47.71l47.147-27.84c-29.227-44.107-65.387-82.865-106.88-114.744l0.213-0.328c-9.28-7.206-15.147-18.56-15.147-31.334 0-21.726 17.173-39.303 38.4-39.303 10.667 0 20.373 4.476 27.413 11.791 129.92 102.080 213.653 262.787 213.653 443.474 0 308.751-244.48 558.983-546.133 558.983zM714.24 569.441l-134.080-107.211c-10.24 5.24-21.867 8.079-34.027 8.079-42.453 0-76.8-35.155-76.8-78.607s34.347-78.607 76.8-78.607c42.453 0 76.8 35.155 76.8 78.607 0 5.131-0.427 10.044-1.387 14.848l134.72 107.866c14.827 11.9 17.493 33.845 5.867 49.020s-33.067 17.905-47.893 6.005z" />
<glyph unicode="&#xe91a;" glyph-name="deminimis_ic" d="M96.8 912v-928c0-26.533-21.467-48-48-48s-48 21.467-48 48v928c0 26.533 21.467 48 48 48s48-21.467 48-48zM48.8 32h925.333c26.533 0 48-21.467 48-48s-21.467-48-48-48h-925.333c-26.533 0-48 21.467-48 48s21.467 48 48 48zM351.733 654.667v-494.667c0-26.533-21.467-48-48-48s-48 21.467-48 48v494.667c0 26.533 21.467 48 48 48s48-21.467 48-48zM863.067 828v-668c0-26.533-21.467-48-48-48s-48 21.467-48 48v668c0 26.533 21.467 48 48 48s48-21.467 48-48zM606.133 486.667v-326.667c0-26.533-21.467-48-48-48s-48 21.467-48 48v326.667c0 26.533 21.467 48 48 48 26.4 0 48-21.467 48-48z" />
<glyph unicode="&#xe91b;" glyph-name="edit_ic" d="M924 72h-824c-19.9 0-36-16.1-36-36s16.1-36 36-36h824c19.9 0 36 16.1 36 36s-16.1 36-36 36zM296 190l235.5 99.7c3.8 1.6 7.2 3.9 10.2 6.8l397.2 397.2c28.1 28.1 28.3 73.9 0.2 102l-79.3 79.3c-28.1 28.1-73.9 27.9-102-0.2l-397.2-397.2c-2.9-2.9-5.2-6.4-6.8-10.2l-99.8-235.4c-5.6-13.2-1.7-26.5 6.8-35.1s21.9-12.5 35.2-6.9zM808.7 823.9l0.2 0.2 79.2-79.2-62.2-62.2-79.2 79.2 62 62zM417 432.2l278.8 278.8 79.2-79.2-278.8-278.8-137.4-58.2 58.2 137.4z" />
<glyph unicode="&#xe91c;" glyph-name="error_ic" d="M512 874.667c-235.52 0-426.667-191.147-426.667-426.667s191.147-426.667 426.667-426.667c235.52 0 426.667 191.147 426.667 426.667s-191.147 426.667-426.667 426.667zM512 106.667c-188.587 0-341.333 152.747-341.333 341.333s152.747 341.333 341.333 341.333c188.587 0 341.333-152.747 341.333-341.333s-152.747-341.333-341.333-341.333zM512 896c-247.45 0-448-200.55-448-448s200.55-448 448-448c247.45 0 448 200.55 448 448s-200.55 448-448 448zM477 693.875c0 19.338 15.662 35 35 35s35-15.662 35-35v-322.875c0-19.338-15.662-35-35-35s-35 15.662-35 35v322.875zM512 201.25c-21.787 0-39.375 17.588-39.375 39.375s17.588 39.375 39.375 39.375c21.787 0 39.375-17.587 39.375-39.375 0-21.7-17.588-39.375-39.375-39.375z" />
<glyph unicode="&#xe91d;" glyph-name="expand_ic" horiz-adv-x="1170" d="M203.161 812.228h766.403c30.638 0 55.579 32.9 55.579 73.315s-24.941 73.315-55.579 73.315h-766.557c-30.638 0-55.579-32.9-55.579-73.315 0.154-40.618 24.941-73.315 55.733-73.315zM203.161 519.771h766.403c30.638 0 55.579 32.9 55.579 73.315s-24.941 73.315-55.579 73.315h-766.557c-30.638 0-55.579-32.9-55.579-73.315 0.154-40.414 24.941-73.315 55.733-73.315zM203.161 227.429h766.403c30.638 0 55.579 32.9 55.579 73.315s-24.941 73.315-55.579 73.315h-766.557c-30.638 0-55.579-32.9-55.579-73.315 0.154-40.618 24.941-73.315 55.733-73.315z" />
<glyph unicode="&#xe91e;" glyph-name="export_ic" horiz-adv-x="853" d="M790.24 658.2l-278.162 280.5c-4.506 4.5-9.412 8.3-14.719 11.5-1.402 0.8-2.804 1.6-4.306 2.3-0.901 0.5-1.902 0.9-2.804 1.3-9.012 4-18.925 6.2-29.038 6.2h-345.45c-39.852 0-73.095-32.2-73.095-72v-880c0-39.8 33.243-72 73.095-72h623.812c39.852 0 71.093 32.2 71.093 72v599.5c0 19-7.009 37.2-20.427 50.7zM498.26 849.6l201.062-201.6h-201.062v201.6zM738.573 8h-623.812v880h311.405v-240c0-39.8 33.243-72 73.095-72h239.312v-568zM375.3 292.7l-55.873 155.8h86.012l15.821-57.4c4.205-15.2 8.611-31.9 14.018-52.6h1.702c11.014 20.7 20.827 37.6 30.139 52.6l33.444 57.4h81.706l-111.145-159.3 60.078-161.9h-86.012l-18.825 62.7c-4.806 16.9-9.112 33.6-14.319 53.5h-1.702c-11.215-19.9-21.228-36.7-31.441-53.5l-38.75-62.6h-82.507l117.653 165.3z" />
<glyph unicode="&#xe91f;" glyph-name="accounting_software_ic" horiz-adv-x="1365" d="M133.333 768c0-26.51 21.49-48 48-48s48 21.49 48 48c0 26.51-21.49 48-48 48s-48-21.49-48-48zM1269.333 960h-1173.333c-53.067 0-96-42.933-96-96v-832c0-53.067 42.933-96 96-96h1173.333c53.067 0 96 42.933 96 96v832c0 53.067-42.933 96-96 96zM341.333 32h-245.333v544h245.333v-544zM1269.333 32h-832v225.333c0-0.667 0.533-1.333 1.333-1.333h829.333c0.667 0 1.333 0.533 1.333 1.333v-225.333zM1269.333 350.667c0 0.667-0.533 1.333-1.333 1.333h-829.333c-0.667 0-1.333-0.533-1.333-1.333v225.333h832v-225.333zM1269.333 672h-1173.333v192h1173.333v-192zM272 768c0-26.51 21.49-48 48-48s48 21.49 48 48c0 26.51-21.49 48-48 48s-48-21.49-48-48zM410.667 768c0-26.51 21.49-48 48-48s48 21.49 48 48c0 26.51-21.49 48-48 48s-48-21.49-48-48z" />
<glyph unicode="&#xe920;" glyph-name="add_amount_ic" d="M512 960c-282.8 0-512-229.2-512-512s229.2-512 512-512c282.8 0 512 229.2 512 512s-229.2 512-512 512zM512 8c-243 0-440 197-440 440s197 440 440 440c243 0 440-197 440-440s-197-440-440-440zM659.783 356.761c0-29.134-10.728-55.117-32.185-77.952s-51.475-35.826-90.058-38.976v-47.834h-33.070v47.834c-35.433 2.756-64.369 13.484-86.81 32.185s-33.661 43.208-33.661 73.522h57.283c1.181-16.142 6.988-29.724 17.421-40.747s25.688-17.716 45.767-20.078v144.683c-40.551 9.055-68.109 19.291-82.676 30.708-17.716 14.173-28.74 29.33-33.070 45.472-3.15 10.63-4.724 22.637-4.724 36.023 0 31.889 10.826 58.267 32.48 79.133s50.983 32.677 87.991 35.433v47.834h33.070v-47.834c33.071-2.756 59.841-13.090 80.314-31.003s32.48-41.83 36.023-71.751h-59.054c-1.181 12.992-6.791 24.803-16.83 35.433s-23.523 17.716-40.452 21.26v-141.73c49.212-10.236 81.495-23.622 96.849-40.157 16.929-18.11 25.393-41.928 25.393-71.456zM504.471 611.285c-20.472-1.968-36.909-8.661-49.31-20.078s-18.602-26.968-18.602-46.653c0-19.685 5.807-34.35 17.421-43.995s28.444-17.618 50.491-23.917v134.644zM537.541 284.715c21.653 2.756 38.68 10.531 51.082 23.326s18.602 28.543 18.602 47.243c0 18.701-6.004 32.873-18.012 42.519s-29.232 17.421-51.672 23.326v-136.415z" />
<glyph unicode="&#xe921;" glyph-name="add_note_ic" d="M292.021 535.042c-30.397 0-54.995-24.598-54.995-54.995s24.698-54.995 54.995-54.995c30.397 0 54.995 24.598 54.995 54.995s-24.598 54.995-54.995 54.995zM731.978 535.042c-30.397 0-54.995-24.598-54.995-54.995s24.698-54.995 54.995-54.995c30.297 0 54.895 24.598 54.995 54.995 0 30.397-24.698 54.995-54.995 54.995zM512 535.042c-30.397 0-54.995-24.598-54.995-54.995s24.698-54.995 54.995-54.995c30.297 0 54.995 24.598 54.995 54.995s-24.698 54.995-54.995 54.995zM983.354 668.129c-25.897 57.094-62.994 108.389-110.289 152.385-46.995 43.796-101.69 78.192-162.584 102.19-62.894 24.698-129.687 37.296-198.481 37.296s-135.587-12.599-198.481-37.296c-60.894-23.998-115.589-58.394-162.584-102.19-47.195-43.996-84.292-95.191-110.289-152.385-26.897-59.394-40.596-122.488-40.596-187.482 0-116.889 45.096-228.678 127.188-316.269l23.098-196.581c1.4-11.999 8.699-22.498 19.498-27.897 5.1-2.6 10.699-3.9 16.198-3.9 6.099 0 12.299 1.6 17.798 4.7l148.286 84.292c51.395-15.798 105.090-23.798 159.784-23.798 68.793 0 135.587 12.599 198.481 37.296 60.894 23.998 115.589 58.394 162.584 102.19 47.195 43.996 84.292 95.191 110.289 152.385 26.997 59.394 40.596 122.388 40.596 187.482 0.1 65.094-13.599 128.187-40.496 187.582zM917.76 322.962c-21.998-48.395-53.495-91.991-93.791-129.487-40.396-37.596-87.491-67.193-139.986-87.891-54.495-21.498-112.389-32.297-172.083-32.297-52.295 0-103.59 8.399-152.185 24.998-9.799 3.3-20.498 2.3-29.397-2.8l-114.889-65.294-18.198 154.685c-0.9 7.999-4.5 15.398-10.099 21.098-74.193 75.193-115.089 172.783-115.089 274.673 0 54.695 11.499 107.689 34.197 157.685 21.998 48.395 53.495 91.991 93.791 129.487 40.396 37.596 87.491 67.193 139.986 87.891 54.395 21.398 112.289 32.297 171.983 32.297s117.589-10.899 172.083-32.297c52.495-20.698 99.59-50.195 139.986-87.891 40.196-37.496 71.793-80.992 93.791-129.487 22.698-49.995 34.197-102.99 34.197-157.685-0.1-54.695-11.599-107.689-34.297-157.685z" />
<glyph unicode="&#xe922;" glyph-name="archives_ic" d="M512 957.492c-61.551-0.058-111.433-49.94-111.491-111.491v-57.678h-4.911c-37.049 0-67.082-30.034-67.082-67.082v-123.507c0-37.049 30.034-67.082 67.082-67.082h232.803c37.049 0 67.082 30.034 67.082 67.082v123.611c0 37.049-30.034 67.082-67.082 67.082h-4.911v57.574c-0.058 61.551-49.94 111.433-111.491 111.491zM452.754 846.002c0 32.721 26.525 59.246 59.246 59.246s59.246-26.525 59.246-59.246v-57.678h-118.491v57.678zM643.239 721.345v-123.611c0-3.935-1.563-7.709-4.346-10.492s-6.557-4.346-10.492-4.346h-232.803c-8.195 0-14.838 6.643-14.838 14.838v123.611c0 8.195 6.643 14.838 14.838 14.838h232.803c3.935 0 7.709-1.563 10.492-4.346s4.346-6.557 4.346-10.492zM512 633.365c14.413 0.058 26.056 11.778 26.018 26.192s-11.744 26.072-26.157 26.053c-14.413-0.019-26.088-11.709-26.088-26.122-0.028-6.955 2.729-13.631 7.657-18.539s11.615-7.639 18.57-7.583zM312.424 192.418c4.643-31.076 31.273-54.111 62.694-54.23h273.763c31.421 0.119 58.051 23.154 62.694 54.23l9.404 61.127c1.325 9.333-2.429 18.663-9.849 24.477s-17.378 7.228-26.122 3.709c-8.745-3.519-14.948-11.435-16.274-20.768l-8.882-61.127c-0.822-5.436-5.474-9.468-10.971-9.509h-273.763c-5.498 0.041-10.149 4.073-10.971 9.509l-8.882 61.127c-1.344 9.239-7.515 17.060-16.188 20.516s-18.532 2.022-25.861-3.762c-7.33-5.784-11.017-15.038-9.673-24.277l8.882-61.022zM34.168 72.882c5.221-52.656 49.591-92.729 102.504-92.578h750.655c52.914-0.151 97.283 39.922 102.504 92.578l28.317 277.002c5.894 56.979-32.151 109.224-88.189 121.104l-56.947 413.78c-5.631 33.365-34.604 57.738-68.441 57.574h-116.924c-14.427 0-26.122-11.695-26.122-26.122s11.695-26.122 26.122-26.122h116.924c8.208 0.187 15.337-5.614 16.823-13.688l55.275-403.017h-729.339l55.171 403.017c1.571 8.067 8.71 13.84 16.927 13.688h113.789c14.427 0 26.122 11.695 26.122 26.122s-11.695 26.122-26.122 26.122h-113.789c-34.034-0.041-62.998-24.797-68.336-58.41l-57.051-412.944c-56.038-11.879-94.084-64.124-88.189-121.104l28.317-277.002zM73.143 401.398c11.289 12.642 27.459 19.833 44.408 19.749h789.107c16.933-0.002 33.073-7.173 44.423-19.738s16.85-29.349 15.136-46.195l-28.317-277.107c-2.583-25.973-24.472-45.736-50.573-45.662h-750.655c-26.101-0.074-47.99 19.689-50.573 45.662l-28.317 277.107c-1.746 16.886 3.849 33.708 15.36 46.184z" />
<glyph unicode="&#xe923;" glyph-name="attach_ic" d="M862.367 715.133c-47.1 46.5-109.7 72.3-176.5 72.4h-0.7c-32.1 0-63.4-6-93.2-17.8-30.9-12.3-58.7-30.4-82.5-53.9l-232.9-230.2c-26.9-26.6-41.6-62.1-41.5-100 0.1-37.8 15-73.3 42-100s62.8-41.4 101-41.5h0.3c38.1 0 73.8 14.6 100.6 41l204.4 202c6.8 6.7 10.5 15.6 10.5 25 0 9.5-3.7 18.4-10.5 25-6.7 6.7-15.7 10.3-25.2 10.3s-18.5-3.7-25.2-10.3l-204.4-202c-13.3-13.2-31.2-20.4-50.3-20.4h-0.1c-19.3 0.1-37.4 7.5-50.8 20.8-13.5 13.4-21 31.2-21 50.2-0.1 18.9 7.2 36.6 20.6 49.8l232.9 230.3c33.2 32.9 77.8 51 125.4 51h0.5c47.8-0.1 92.7-18.5 126.4-51.7 33.6-33.3 52.2-77.6 52.3-124.8s-18.2-91.4-51.5-124.3l-247.1-244.5c-49.4-48.6-115.4-75.4-185.8-75.4h-0.7c-70.7 0.2-137.1 27.4-186.9 76.6s-77.3 114.8-77.4 184.7c-0.2 69.9 27 135.3 76.4 184.1l319 315.4c6.8 6.7 10.5 15.6 10.5 25 0 9.5-3.7 18.4-10.5 25-6.8 6.7-15.8 10.4-25.3 10.4s-18.5-3.7-25.2-10.3l-319-315.5c-31.8-31.4-56.4-68.3-73.2-109.5-16.1-39.8-24.2-81.8-24.1-124.8 0.1-43.1 8.4-85.1 24.8-124.8 16.9-41.2 41.6-78.1 73.6-109.7 31.8-31.5 69.2-56 110.9-72.8 40-16.1 82.5-24.3 126.2-24.5h0.9c43.4 0 85.5 8 125.3 23.9 41.6 16.5 78.9 40.8 110.7 72.3l247.1 244.4c23.7 23.5 42.1 50.9 54.5 81.6 12 29.7 18.1 60.9 18 93-0.3 66-26.3 128-73.3 174.5z" />
<glyph unicode="&#xe924;" d="M981.333 64h-938.667c-11.947 0-21.333 9.387-21.333 21.333v725.333c0 11.947 9.387 21.333 21.333 21.333h456.96c5.973 0 11.52-2.56 15.36-6.4l96.853-101.12h369.493c11.947 0 21.333-9.387 21.333-21.333v-617.813c0-11.947-9.387-21.333-21.333-21.333zM64 106.667h896v574.72h-357.547c-5.973 0-11.52 2.56-15.36 6.4l-96.853 101.547h-426.24v-682.667z" />
<glyph unicode="&#xe925;" glyph-name="camera_ic" horiz-adv-x="1195" d="M596.272 153.81c127.214 0 230.682 103.973 230.682 231.806s-103.469 231.806-230.682 231.806c-127.214 0-230.682-103.973-230.682-231.806 0.133-127.833 103.601-231.806 230.682-231.806zM500.099 482.258c25.735 25.86 59.826 40.123 96.173 40.123s70.438-14.263 96.173-40.123c25.735-25.86 39.928-60.118 39.928-96.641s-14.194-70.782-39.928-96.642c-25.735-25.86-59.826-40.123-96.173-40.123s-70.438 14.263-96.173 40.123c-25.735 25.86-39.928 60.118-39.928 96.642 0 36.391 14.194 70.782 39.928 96.641zM1110.698 813.771h-223.254l-125.091 133.299c-8.888 8.265-21.755 12.93-35.418 12.93h-259.733c-13.663 0-26.53-4.799-35.286-13.063l-0.265-0.267-125.091-132.899h-222.591c-46.296 0-83.969-37.857-83.969-84.378v-709.015c0-46.521 37.673-84.378 83.969-84.378h1026.729c46.296 0 83.969 37.857 83.969 84.378v709.015c0 46.521-37.673 84.378-83.969 84.378zM485.64 863.092h222.856l46.163-49.32h-315.315l46.296 49.32zM1087.351 43.572h-980.301v662.494h980.301v-662.494z" />
<glyph unicode="&#xe926;" d="M981.333 64h-938.667c-11.947 0-21.333 9.387-21.333 21.333v725.333c0 11.947 9.387 21.333 21.333 21.333h456.96c5.973 0 11.52-2.56 15.36-6.4l96.853-101.12h369.493c11.947 0 21.333-9.387 21.333-21.333v-617.813c0-11.947-9.387-21.333-21.333-21.333zM64 106.667h896v574.72h-357.547c-5.973 0-11.52 2.56-15.36 6.4l-96.853 101.547h-426.24v-682.667z" />
<glyph unicode="&#xe927;" glyph-name="check-circle-o" d="M721.3 654.4l-327.5-328.5-85.4 149.5c-9.9 17.3-31.8 23.3-49.1 13.4s-23.3-31.8-13.4-49.1l108.8-190.5c6.6-11.6 18.8-18.2 31.3-18.2 6.1 0 12.2 1.5 17.8 4.7 3.2 1.9 6.1 4.1 8.5 6.7 0.1 0.1 0.3 0.3 0.4 0.4l359.5 360.6c14 14.1 14 36.9-0.1 50.9-14 14.2-36.7 14.2-50.8 0.1zM512 960c-282.8 0-512-229.2-512-512s229.2-512 512-512c282.8 0 512 229.2 512 512s-229.2 512-512 512zM823.1 136.9c-40.4-40.4-87.5-72.2-139.9-94.3-54.2-23-111.8-34.6-171.2-34.6s-117 11.6-171.2 34.5c-52.4 22.2-99.4 53.9-139.9 94.3-40.4 40.4-72.2 87.5-94.3 139.9-23 54.3-34.6 111.9-34.6 171.3s11.6 117 34.5 171.2c22.2 52.4 53.9 99.4 94.3 139.9 40.4 40.4 87.5 72.2 139.9 94.3 54.3 23 111.9 34.6 171.3 34.6s117-11.6 171.2-34.5c52.4-22.2 99.4-53.9 139.9-94.3 40.4-40.4 72.2-87.5 94.3-139.9 23-54.3 34.6-111.9 34.6-171.3s-11.6-117-34.5-171.2c-22.2-52.4-53.9-99.5-94.4-139.9z" />
<glyph unicode="&#xe928;" glyph-name="client" horiz-adv-x="1078" d="M1030.461 179.794c-11.45 60.519-57.248 107.953-116.131 121.038l-197.914 47.434-68.697 93.232c45.798 37.62 81.783 91.597 83.418 155.387 14.721 11.45 53.977 49.070 53.977 88.325-1.636 37.62-26.17 40.891-34.349 40.891 0 0-1.636 0-1.636 0l6.543 57.248c3.271 68.697-27.806 94.868-50.705 106.317 22.899 31.077 17.992 50.705 16.357 52.341l-4.907 14.721-13.085-9.814c-14.721-9.814-29.442-14.721-42.527-14.721-9.814 0-14.721 3.271-16.357 3.271-44.163 19.628-135.759 24.535-140.666 24.535-94.868 0-124.31-47.434-130.852-68.697-80.147-9.814-76.876-89.961-75.24-129.217 0-6.543 0-13.085 0-17.992 0-6.543 0-14.721 1.636-24.535-11.45 0-32.713-6.543-32.713-40.891-1.636-39.256 39.256-75.24 53.977-88.325 3.271-62.155 37.62-117.767 83.418-153.751l-67.062-94.868-178.286-40.891c-60.519-13.085-106.317-62.155-116.131-122.674l-42.527-230.627h1077.895l-47.434 232.263zM382.743 868.403h9.814l1.636 9.814c0 1.636 13.085 57.248 109.589 57.248 1.636 0 91.597-4.907 130.852-21.263 1.636 0 11.45-4.907 26.17-4.907 11.45 0 21.263 1.636 32.713 6.543-3.271-6.543-9.814-14.721-17.992-22.899l-17.992-17.992 24.535-3.271c1.636 0 52.341-6.543 49.070-85.054l-6.543-60.519-27.806-11.45c-6.543 8.178-16.357 11.45-21.263 13.085-9.814 1.636-24.535 3.271-40.891 3.271-27.806 0-53.977-3.271-55.612-3.271-21.263-3.271-34.349-9.814-42.527-22.899 0-1.636 0-1.636-1.636-3.271h-21.263c0 1.636 0 1.636-1.636 3.271-6.543 13.085-21.263 21.263-42.527 22.899-1.636 0-27.806 3.271-55.612 3.271-16.357 0-29.442-1.636-40.891-3.271-4.907-1.636-14.721-4.907-21.263-13.085l-32.713 13.085c0 6.543-1.636 11.45-1.636 16.357s0 11.45 0 19.628c3.271 52.341 4.907 101.41 65.426 104.682zM682.067 677.032l-1.636-11.45c-4.907-27.806-6.543-32.713-19.628-37.62 0 0-16.357-3.271-34.349-3.271-21.263 0-35.984 4.907-44.163 11.45-3.271 4.907-13.085 22.899-21.263 44.163 0 0-3.271 8.178 0 13.085s11.45 8.178 22.899 9.814c0 0 26.17 3.271 52.341 3.271 14.721 0 27.806-1.636 35.984-3.271 0 0 14.721-3.271 9.814-26.17zM492.331 678.668c-8.178-21.263-17.992-39.256-21.263-42.527-8.178-8.178-22.899-11.45-44.163-11.45-17.992 0-32.713 3.271-34.349 3.271-14.721 4.907-16.357 9.814-21.263 37.62l-1.636 11.45c-3.271 21.263 8.178 26.17 11.45 27.806 8.178 1.636 21.263 3.271 35.984 3.271 26.17 0 52.341-3.271 52.341-3.271 11.45-1.636 19.628-4.907 22.899-9.814 3.271-6.543 0-14.721 0-16.357zM345.123 598.521v6.543l-4.907 3.271c-13.085 9.814-49.070 44.163-49.070 71.969 0 16.357 6.543 16.357 11.45 16.357 6.543 0 11.45 3.271 16.357 6.543l27.806-11.45c-1.636-6.543-1.636-13.085 0-19.628l1.636-11.45c4.907-29.442 8.178-49.070 39.256-57.248 0 0 17.992-3.271 39.256-3.271 29.442 0 50.705 6.543 62.155 21.263l1.636 1.636c0 1.636 14.721 21.263 22.899 47.434 0 0 1.636 4.907 3.271 8.178h17.992c1.636-4.907 3.271-6.543 3.271-8.178 9.814-26.17 22.899-47.434 24.535-47.434l1.636-1.636c13.085-13.085 34.349-21.263 62.155-21.263 21.263 0 39.256 3.271 40.891 4.907 31.077 9.814 32.713 27.806 37.62 57.248l1.636 11.45c1.636 8.178 1.636 14.721 0 19.628l26.17 9.814c3.271-1.636 6.543-3.271 9.814-3.271h4.907c1.636 0 3.271 0 4.907 0 3.271 0 9.814 0 9.814-17.992 0-27.806-34.349-60.519-49.070-71.969l-4.907-1.636v-6.543c0-103.046-109.589-188.1-181.557-188.1-80.147 0-179.922 83.418-181.557 184.829zM27.806-26.298l37.62 201.185c9.814 50.705 47.434 91.597 98.139 103.046l171.743 39.256 91.597-343.487h-399.099zM484.153-26.298l21.263 225.72h42.527l21.263-225.72h-85.054zM551.215 223.957h-50.705l-24.535 42.527h99.775l-24.535-42.527zM593.742-26.298l-21.263 235.534 35.984 63.79c1.636 3.271 1.636 8.178 0 11.45s-6.543 6.543-9.814 6.543h-142.302c-4.907 0-8.178-1.636-9.814-6.543-1.636-3.271-1.636-8.178 0-11.45l35.984-63.79-21.263-235.534h-6.543l-94.868 356.572 67.062 93.232c32.713-21.263 68.697-34.349 103.046-34.349 31.077 0 67.062 13.085 101.41 35.984l67.062-91.597-96.503-361.479h-8.178v1.636zM718.051 322.096l189.736-44.163c50.705-11.45 88.325-52.341 98.139-101.41l39.256-201.185h-420.363l93.232 346.758z" />
<glyph unicode="&#xe929;" d="M981.333 64h-938.667c-11.947 0-21.333 9.387-21.333 21.333v725.333c0 11.947 9.387 21.333 21.333 21.333h456.96c5.973 0 11.52-2.56 15.36-6.4l96.853-101.12h369.493c11.947 0 21.333-9.387 21.333-21.333v-617.813c0-11.947-9.387-21.333-21.333-21.333zM64 106.667h896v574.72h-357.547c-5.973 0-11.52 2.56-15.36 6.4l-96.853 101.547h-426.24v-682.667z" />
<glyph unicode="&#xe92a;" d="M981.333 64h-938.667c-11.947 0-21.333 9.387-21.333 21.333v725.333c0 11.947 9.387 21.333 21.333 21.333h456.96c5.973 0 11.52-2.56 15.36-6.4l96.853-101.12h369.493c11.947 0 21.333-9.387 21.333-21.333v-617.813c0-11.947-9.387-21.333-21.333-21.333zM64 106.667h896v574.72h-357.547c-5.973 0-11.52 2.56-15.36 6.4l-96.853 101.547h-426.24v-682.667z" />
<glyph unicode="&#xe92b;" d="M981.333 64h-938.667c-11.947 0-21.333 9.387-21.333 21.333v725.333c0 11.947 9.387 21.333 21.333 21.333h456.96c5.973 0 11.52-2.56 15.36-6.4l96.853-101.12h369.493c11.947 0 21.333-9.387 21.333-21.333v-617.813c0-11.947-9.387-21.333-21.333-21.333zM64 106.667h896v574.72h-357.547c-5.973 0-11.52 2.56-15.36 6.4l-96.853 101.547h-426.24v-682.667z" />
<glyph unicode="&#xe92c;" d="M981.333 64h-938.667c-11.947 0-21.333 9.387-21.333 21.333v725.333c0 11.947 9.387 21.333 21.333 21.333h456.96c5.973 0 11.52-2.56 15.36-6.4l96.853-101.12h369.493c11.947 0 21.333-9.387 21.333-21.333v-617.813c0-11.947-9.387-21.333-21.333-21.333zM64 106.667h896v574.72h-357.547c-5.973 0-11.52 2.56-15.36 6.4l-96.853 101.547h-426.24v-682.667z" />
<glyph unicode="&#xe92d;" d="M474.88 493.653c19.2-14.507 32.427-34.133 39.68-59.307h-32.853c-5.973 15.787-16.213 28.587-29.867 37.973s-30.293 14.080-50.347 14.080c-15.787 0-29.867-3.84-42.24-11.52s-22.187-18.347-29.44-32.853c-7.253-14.080-10.667-30.72-10.667-49.92 0-18.773 3.413-35.413 10.667-49.493s17.067-24.747 29.44-32.427c12.373-7.68 26.453-11.52 42.24-11.52 19.627 0 36.693 4.693 50.347 14.080s23.467 22.187 29.867 37.973h32.853c-7.253-25.173-20.48-44.8-39.68-59.307s-43.52-21.76-72.533-21.76c-22.613 0-42.24 5.12-59.733 15.36s-30.72 24.747-40.533 43.52-14.507 39.68-14.507 63.147c0 23.893 4.693 45.227 14.507 64s23.040 33.28 40.533 43.52c17.493 10.24 37.12 15.36 59.733 15.36 29.013 0.853 53.333-6.4 72.533-20.907z" />
<glyph unicode="&#xe92e;" d="M600.747 369.067v-96.853h-31.147v240.64h76.373c27.733 0 48.213-6.4 61.867-19.2s20.48-30.293 20.48-52.907c0-22.613-7.253-40.107-21.333-52.907s-34.56-18.773-61.013-18.773h-45.227zM684.373 407.040c8.107 8.107 12.373 19.2 12.373 33.707 0 14.933-4.267 26.453-12.373 34.133-8.533 7.68-21.76 11.947-40.96 11.947h-42.667v-91.733h42.667c18.773 0 32.427 3.84 40.96 11.947z" />
<glyph unicode="&#xe92f;" d="M476.16 512.853v-25.173h-105.387v-83.2h89.173v-24.32h-89.173v-107.947h-31.147v240.64h136.533z" />
<glyph unicode="&#xe930;" d="M670.72 302.933c-5.547-9.813-13.653-17.92-24.747-23.893s-24.747-9.387-41.387-9.387c-15.787 0-30.293 2.987-42.667 8.533-12.373 5.973-22.187 13.653-29.867 23.893-7.253 10.24-11.52 21.76-12.8 34.56h33.28c0.853-6.827 2.987-13.653 6.827-20.053s9.813-11.947 17.067-16.213c7.253-4.267 16.213-6.4 26.88-6.4 13.653 0 24.32 3.413 31.573 11.093 7.253 7.253 11.093 16.64 11.093 28.16 0 9.813-2.56 17.92-7.68 23.893s-11.52 11.093-18.773 14.507c-7.68 3.413-17.92 7.253-30.72 11.52-15.36 5.12-27.307 9.813-36.693 14.080s-17.067 11.093-23.467 20.053-9.813 20.48-9.813 34.987c0 12.373 2.987 23.467 8.96 33.28 5.973 9.387 14.507 17.067 26.027 22.187 11.093 5.12 24.747 7.68 39.68 7.68 23.467 0 42.24-5.547 56.32-17.067s21.76-26.027 24.32-43.947h-34.133c-1.707 9.387-6.827 17.92-14.507 25.173-8.107 7.253-18.773 11.093-32.427 11.093-12.373 0-22.613-3.413-29.867-9.813s-11.093-15.787-11.093-27.307c0-9.387 2.56-17.067 7.253-22.613 4.693-5.973 11.093-10.24 18.347-13.653s17.493-6.827 29.867-11.093c15.36-5.12 27.733-9.813 37.547-14.507 9.387-4.693 17.493-11.52 23.893-20.48 6.827-9.387 9.813-21.333 9.813-36.693 0-11.093-2.987-21.76-8.107-31.573z" />
<glyph unicode="&#xe931;" d="M447.147 272.213l-62.72 98.133h-33.707v-98.133h-31.147v240.64h79.36c27.307 0 47.787-6.4 61.44-19.627s20.48-30.293 20.48-52.053c0-19.627-5.547-35.413-16.213-47.36-11.093-11.947-26.88-19.627-47.36-22.187l65.707-99.413h-35.84zM350.72 392.96h45.227c35.413 0 52.907 15.36 52.907 46.507s-17.493 46.507-52.907 46.507h-45.227v-93.013z" />
<glyph unicode="&#xe932;" d="M703.147 359.253h-149.76c0.853-21.333 6.827-37.547 18.347-48.213s25.6-16.213 42.24-16.213c14.933 0 27.733 3.84 37.547 11.52 10.24 7.68 16.213 17.92 18.773 30.72h33.28c-2.133-12.8-7.253-24.747-15.36-34.987-7.68-10.24-17.92-18.347-30.72-23.893-12.373-5.547-26.453-8.533-42.24-8.533-17.92 0-33.707 3.84-47.787 11.52s-24.747 18.773-32.427 33.28c-7.68 14.507-11.947 31.573-11.947 51.2s3.84 36.693 11.947 51.2c7.68 14.507 18.773 25.6 32.427 33.28 14.080 7.68 29.867 11.52 47.787 11.52 18.347 0 34.133-3.84 47.787-11.52s23.893-17.92 31.147-31.147c7.253-12.8 10.667-27.307 10.667-43.093-0.427-5.973-0.853-11.947-1.707-16.64zM666.453 409.173c-5.12 9.387-12.373 16.213-21.333 20.907s-19.2 6.827-29.867 6.827c-17.067 0-31.573-5.12-43.093-15.787s-17.92-26.027-18.773-46.507h119.893c0.427 13.653-1.707 25.173-6.827 34.56z" />
<glyph unicode="&#xe933;" d="M437.333 493.653c19.2-14.507 32.427-34.133 39.68-59.307h-32.853c-5.973 15.787-16.213 28.587-29.867 37.973s-30.293 14.080-49.92 14.080c-15.787 0-29.867-3.84-42.24-11.52s-22.187-18.347-29.44-32.853c-7.253-14.080-10.667-30.72-10.667-49.92 0-18.773 3.413-35.413 10.667-49.493s17.067-24.747 29.44-32.427c12.373-7.68 26.453-11.52 42.24-11.52 19.627 0 36.693 4.693 50.347 14.080s23.467 22.187 29.867 37.973h32.853c-7.253-25.173-20.48-44.8-39.68-59.307s-43.52-21.76-72.533-21.76c-22.613 0-42.24 5.12-59.733 15.36s-30.72 24.747-40.533 43.52-14.507 39.68-14.507 63.147c0 23.893 4.693 45.227 14.507 64s23.040 33.28 40.533 43.52c17.493 10.24 37.12 15.36 59.733 15.36 28.587 0.853 52.907-6.4 72.107-20.907z" />
<glyph unicode="&#xe934;" d="M702.72 500.053c17.92-10.667 32-25.173 42.24-43.947s15.36-40.107 15.36-63.573c0-23.893-5.12-44.8-15.36-63.573s-24.32-33.28-42.24-43.947c-17.92-10.667-37.973-15.787-60.16-15.787s-42.667 5.12-60.587 15.787c-17.92 10.667-32.427 25.173-42.667 43.947s-15.36 40.107-15.36 63.573c0 23.467 5.12 44.8 15.36 63.573s24.32 33.28 42.667 43.947c17.92 10.667 38.4 15.787 60.587 15.787s42.24-5.12 60.16-15.787zM597.76 475.307c-13.227-7.68-23.467-18.773-30.72-32.853s-11.093-30.72-11.093-49.92c0-18.773 3.84-35.413 11.093-49.92s17.493-25.173 30.72-32.853 28.16-11.52 44.373-11.52c16.213 0 31.147 3.84 44.373 11.52s23.467 18.773 30.72 32.853c7.253 14.080 11.093 30.72 11.093 49.493 0 19.2-3.84 35.84-11.093 49.92s-17.493 25.173-30.72 32.853c-13.227 7.68-27.733 11.52-44.373 11.52-16.213 0.427-31.147-3.413-44.373-11.093z" />
<glyph unicode="&#xe935;" d="M480.427 512.853v-25.173h-68.267v-215.467h-30.72v215.467h-68.267v25.173h167.253z" />
<glyph unicode="&#xe936;" d="M658.773 272.213l-60.587 95.147-55.040-95.147h-35.413l73.387 122.453-74.667 118.187h37.12l58.88-93.44 55.467 93.44h35.84l-73.813-120.32 75.947-120.32h-37.12z" />
<glyph unicode="&#xe937;" d="M478.72 512.853v-25.173h-68.267v-215.467h-30.72v215.467h-68.267v25.173h167.253z" />
<glyph unicode="&#xe938;" d="M676.267 375.467c9.387-11.093 13.653-23.893 13.653-38.4 0-19.627-6.827-35.413-20.053-46.933-13.227-11.947-32.427-17.92-58.027-17.92h-89.6v240.64h87.893c24.32 0 42.24-5.547 55.040-16.213 12.373-10.667 18.773-25.173 18.773-43.947 0-15.36-4.267-28.16-12.373-37.547s-18.773-15.787-32-18.347c15.36-3.413 27.733-10.24 36.693-21.333zM553.813 407.467h52.053c15.36 0 26.88 3.413 34.987 10.667s11.947 17.067 11.947 29.867c0 12.373-3.84 21.76-11.947 29.013s-20.053 10.667-36.693 10.667h-50.347v-80.213zM644.693 309.333c8.96 7.68 13.653 17.92 13.653 31.573 0 13.227-4.693 23.893-13.653 31.573-9.387 7.68-22.187 11.52-38.4 11.52h-52.053v-86.187h52.48c16.213 0.427 29.013 4.267 37.973 11.52z" />
<glyph unicode="&#xe975;" glyph-name="collapse_btn" d="M621.714 661.204l-140.156-145.926 131.825-137.252-38.168-39.739-172.929 180.049 178.324 185.666 41.104-42.796z" />
<glyph unicode="&#xe977;" glyph-name="my_account_ic" d="M227.556 267.378c0 21.227-17.173 38.4-38.4 38.4h-128c-21.227 0-38.4-17.173-38.4-38.4s17.173-38.4 38.4-38.4h128c21.227 0 38.4 17.173 38.4 38.4zM61.156 610.844h128c21.227 0 38.4 17.173 38.4 38.4s-17.173 38.4-38.4 38.4h-128c-21.227 0-38.4-17.173-38.4-38.4s17.173-38.4 38.4-38.4zM901.689 937.244h-733.867c-42.453 0-76.8-34.347-76.8-76.8v-59.733c0-21.227 17.173-38.4 38.4-38.4s38.4 17.173 38.4 38.4v59.733h733.867v-802.133h-733.867v57.6h-0.107c0 0.747 0.107 1.387 0.107 2.133 0 21.227-17.173 38.4-38.4 38.4s-38.4-17.173-38.4-38.4c0-0.747 0-1.387 0.107-2.133h-0.107v-57.6c0-42.453 34.347-76.8 76.8-76.8h733.867c42.453 0 76.8 34.347 76.8 76.8v802.133c0 42.453-34.347 76.8-76.8 76.8zM61.156 419.911h128c21.227 0 38.4 17.173 38.4 38.4s-17.173 38.4-38.4 38.4h-128c-21.227 0-38.4-17.173-38.4-38.4s17.173-38.4 38.4-38.4zM568.462 382.578c-96.427 0-174.933 78.507-174.933 174.933s78.507 174.933 174.933 174.933c96.427 0 174.933-78.507 174.933-174.933s-78.507-174.933-174.933-174.933zM568.462 655.644c-54.080 0-98.133-44.053-98.133-98.133s44.053-98.133 98.133-98.133c54.080 0 98.133 44.053 98.133 98.133s-44.053 98.133-98.133 98.133zM769.636 186.311c-18.133 0-34.24 12.8-37.653 31.253-14.933 78.293-83.627 135.147-163.52 135.147s-148.587-56.853-163.52-135.147c-3.52-18.453-19.627-31.253-37.653-31.253-2.347 0-4.8 0.213-7.147 0.64-20.8 3.947-34.56 24-30.613 44.907 21.653 114.56 122.133 197.653 238.933 197.653 116.693 0 217.28-83.093 238.933-197.653 3.947-20.8-9.707-40.96-30.613-44.907-2.347-0.427-4.8-0.64-7.147-0.64z" />
<glyph unicode="&#xe978;" glyph-name="history_ic" d="M941.714 886.857h-137.143v32c0 22.743-18.4 41.143-41.143 41.143s-41.143-18.4-41.143-41.143v-32h-420.571v32c0 22.743-18.4 41.143-41.143 41.143s-41.143-18.4-41.143-41.143v-32h-137.143c-45.486 0-82.286-36.8-82.286-82.286v-786.286c0-45.486 36.8-82.286 82.286-82.286h859.429c45.486 0 82.286 36.914 82.286 82.286v786.286c0 45.486-36.8 82.286-82.286 82.286zM82.286 804.571h137.143v-22.857c0-22.743 18.4-41.143 41.143-41.143s41.143 18.4 41.143 41.143v22.857h420.571v-22.857c0-22.743 18.4-41.143 41.143-41.143s41.143 18.4 41.143 41.143v22.857h137.143v-128h-859.429v128zM941.714 18.286h-859.429v576h859.429v-576zM256 448h73.143c20.229 0 36.571-16.343 36.571-36.571s-16.343-36.571-36.571-36.571h-73.143c-20.229 0-36.571 16.343-36.571 36.571s16.343 36.571 36.571 36.571zM475.429 448h73.143c20.229 0 36.571-16.343 36.571-36.571s-16.343-36.571-36.571-36.571h-73.143c-20.229 0-36.571 16.343-36.571 36.571s16.343 36.571 36.571 36.571zM694.857 448h73.143c20.229 0 36.571-16.343 36.571-36.571s-16.343-36.571-36.571-36.571h-73.143c-20.229 0-36.571 16.343-36.571 36.571s16.343 36.571 36.571 36.571zM256 226.286h73.143c20.229 0 36.571-16.343 36.571-36.571s-16.343-36.571-36.571-36.571h-73.143c-20.229 0-36.571 16.343-36.571 36.571s16.343 36.571 36.571 36.571zM475.429 226.286h73.143c20.229 0 36.571-16.343 36.571-36.571s-16.343-36.571-36.571-36.571h-73.143c-20.229 0-36.571 16.343-36.571 36.571s16.343 36.571 36.571 36.571z" />
<glyph unicode="&#xe979;" glyph-name="open_engagement_ic" d="M381.714 877.714v-299.429h-299.429v299.429h299.429zM381.714 960h-299.429c-45.486 0-82.286-36.8-82.286-82.286v-299.429c0-45.486 36.8-82.286 82.286-82.286h299.429c45.486 0 82.286 36.8 82.286 82.286v299.429c0 45.486-36.8 82.286-82.286 82.286zM941.714 877.714v-299.429h-299.429v299.429h299.429zM941.714 960h-299.429c-45.486 0-82.286-36.8-82.286-82.286v-299.429c0-45.486 36.8-82.286 82.286-82.286h299.429c45.486 0 82.286 36.8 82.286 82.286v299.429c0 45.486-36.8 82.286-82.286 82.286zM381.714 317.714v-299.429h-299.429v299.429h299.429zM381.714 400h-299.429c-45.486 0-82.286-36.8-82.286-82.286v-299.429c0-45.486 36.8-82.286 82.286-82.286h299.429c45.486 0 82.286 36.8 82.286 82.286v299.429c0 45.486-36.8 82.286-82.286 82.286zM941.714 317.714v-299.429h-299.429v299.429h299.429zM941.714 400h-299.429c-45.486 0-82.286-36.8-82.286-82.286v-299.429c0-45.486 36.8-82.286 82.286-82.286h299.429c45.486 0 82.286 36.8 82.286 82.286v299.429c0 45.486-36.8 82.286-82.286 82.286z" />
<glyph unicode="&#xe97a;" glyph-name="all_clients_ic" horiz-adv-x="887" d="M790.39 461.18c-21.782 21.156-46.519 37.847-73.884 49.86 31.743 16.266 58.888 39.867 79.247 68.996 24.847 35.508 37.982 76.969 37.982 120.131 0 117.899-98.73 213.791-220.118 213.791-45.972 0-89.974-13.608-127.299-39.335-32.509-22.432-57.903-52.517-73.884-87.6-41.594 43.481-99.497 68.251-161.23 68.251-121.388 0-220.118-95.892-220.118-213.791 0-43.056 13.135-84.517 37.982-120.025 20.359-29.129 47.504-52.73 79.247-69.102-27.364-12.013-52.211-28.704-73.884-49.86-47.395-46.033-73.555-107.055-73.555-171.798v-175.094c0-53.155 44.549-96.53 99.387-96.53h302.102c39.842 0 75.854 23.388 91.397 58.684h271.125c54.729 0 99.387 43.268 99.387 96.53v175.2c-0.328 64.743-26.379 125.766-73.884 171.692zM513.025 797.866c26.817 26.152 62.5 40.504 100.591 40.504s73.774-14.352 100.591-40.504c26.926-26.046 41.703-60.703 41.703-97.7s-14.886-71.653-41.703-97.7c-26.817-26.152-62.5-40.504-100.591-40.504s-73.774 14.352-100.591 40.504c-26.926 26.046-41.703 60.703-41.703 97.7s14.777 71.653 41.703 97.7zM108.8 641.483c0 36.996 14.777 71.653 41.703 97.7 26.817 26.152 62.5 40.504 100.591 40.504s73.774-14.352 100.591-40.504c26.926-26.152 41.703-60.81 41.703-97.7 0-36.996-14.777-71.653-41.703-97.7-26.817-26.152-62.5-40.504-100.591-40.504-37.982 0-73.774 14.352-100.701 40.504-26.817 26.046-41.594 60.81-41.594 97.7zM423.599 55.711c0-5.528-2.189-10.737-6.349-14.671-4.050-3.933-9.413-6.166-15.105-6.166h-302.102c-11.821 0-21.454 9.355-21.454 20.837v175.094c0 44.544 17.951 86.537 50.679 118.324s75.963 49.222 121.826 49.222c45.863 0 89.098-17.435 121.826-49.222 0.547-0.532 1.095-1.063 1.423-1.488l0.328-0.425c31.524-31.468 48.927-72.823 48.927-116.517v-174.987zM404.335 422.802c-15.652 11.907-32.509 21.794-50.35 29.661 43.454 22.432 78.262 58.471 98.292 102.165 16.856-17.541 36.559-32.318 58.341-43.481-27.364-12.013-52.211-28.81-73.884-49.86-12.15-11.907-22.986-24.77-32.399-38.484zM786.121 114.288c0-11.482-9.632-20.837-21.454-20.837h-263.135v137.353c0 48.159-14.448 94.404-41.813 134.164 8.319 15.84 19.046 30.192 32.071 42.737 32.618 31.787 75.963 49.328 121.826 49.328s89.098-17.435 121.826-49.222c32.728-31.787 50.679-73.78 50.679-118.324v-175.2z" />
<glyph unicode="&#xe97b;" glyph-name="add_clients" horiz-adv-x="819" d="M780.693 191.004h-93.653v93.653c0 21.227-17.28 38.507-38.507 38.507s-38.507-17.28-38.507-38.507v-93.653h-93.653c-21.227 0-38.507-17.28-38.507-38.507s17.28-38.507 38.507-38.507h93.653v-93.653c0-21.227 17.28-38.507 38.507-38.507s38.507 17.28 38.507 38.507v93.653h93.653c21.227 0 38.507 17.28 38.507 38.507 0 21.333-17.28 38.507-38.507 38.507zM648.533 697.778c0 132.267-106.987 239.467-238.933 239.467s-238.933-107.2-238.933-239.467c0-132.267 106.987-239.467 238.933-239.467s238.933 107.2 238.933 239.467zM409.6 535.324c-89.493 0-162.133 72.747-162.133 162.453s72.64 162.453 162.133 162.453c89.493 0 162.133-72.747 162.133-162.453s-72.64-162.453-162.133-162.453zM633.6 391.538c-64.427 42.24-141.333 66.773-224 66.773-226.24 0-409.6-183.787-409.6-410.56h0.107c0-0.747-0.107-1.387-0.107-2.133 0-21.227 17.173-38.507 38.4-38.507s38.4 17.28 38.4 38.507c0 0.747 0 1.387-0.107 2.133h0.107c0 184.213 149.013 333.547 332.8 333.547 41.813 0 81.813-7.68 118.613-21.867 31.36 18.347 67.093 29.76 105.387 32.107z" />
<glyph unicode="&#xe97e;" glyph-name="business_address_ic" d="M274.629 841.6c1.029-7.657 1.486-15.543 1.257-23.429l-1.257-41.371 32.343-25.714 279.657-221.714 42.057 13.714c33.143 10.857 67.771 16.343 102.857 16.343 37.029 0 73.486-6.171 108.343-18.171 20.457-7.086 40.114-16.229 58.743-27.086l-450.743-452.686c-20 33.714-33.943 71.086-40.914 109.829-9.6 53.714-5.714 109.486 11.2 161.257l13.714 42.057-27.429 34.629-220 277.371-41.371-1.257c-1.371 0-2.857-0.114-4.229-0.114-6.514 0-13.029 0.457-19.429 1.371l155.2 154.971zM291.314 958.743c-9.714 0-19.543-3.657-27.086-11.2l-250.743-250.171c-17.143-17.143-14.4-45.714 5.943-58.971 36.229-23.543 77.829-35.314 119.429-35.314 2.286 0 4.571 0 6.857 0.114l194.286-245.029c-42.514-130.171-18.629-277.143 71.657-388.114 7.886-9.6 19.2-14.514 30.514-14.514 10.057 0 20 3.771 27.771 11.543l235.429 236.343 255.086-255.086c7.314-7.314 16.8-10.857 26.286-10.857s19.086 3.657 26.286 10.857c14.514 14.514 14.514 38.171 0 52.686l-255.2 255.086 235.429 236.343c16.457 16.457 14.857 43.543-3.2 58.286-75.2 60.686-166.857 91.086-258.4 91.086-43.429 0-86.743-6.857-128.457-20.457l-245.029 194.286c1.371 43.771-10.286 87.771-34.971 125.829-7.429 11.314-19.543 17.257-31.886 17.257z" />
<glyph unicode="&#xe97f;" glyph-name="business_ic" horiz-adv-x="1365" d="M1269.333 714.667h-160v149.333c0 53.067-42.933 96-96 96h-661.333c-53.067 0-96-42.933-96-96v-149.333h-160c-53.067 0-96-42.933-96-96v-586.667c0-53.067 42.933-96 96-96h1173.333c53.067 0 96 42.933 96 96v586.667c0 53.067-42.933 96-96 96zM352 864h661.333v-149.333h-661.333v149.333zM1269.333 32h-1173.333v586.667h1173.333v-586.667z" />
<glyph unicode="&#xe980;" glyph-name="cell_phone_ic" horiz-adv-x="640" d="M568 960h-496c-39.8 0-72-32.2-72-72v-880c0-39.8 32.2-72 72-72h496c39.8 0 72 32.2 72 72v880c0 39.8-32.2 72-72 72zM350 0h-60c-19.9 0-34 14.3-34 32s14.1 32 34 32h60c19.9 0 34-14.3 34-32s-14.1-32-34-32zM568 129h-496v704h496v-704z" />
<glyph unicode="&#xe981;" glyph-name="name_ic" horiz-adv-x="878" d="M790.171 125.714c-19.2 45.371-46.743 86.171-81.714 121.143s-75.771 62.514-121.143 81.714c-15.429 6.514-31.314 12-47.314 16.457 45.257 15.314 86.743 40.914 121.486 75.657 59.429 59.429 92.229 138.514 92.229 222.514s-32.686 163.086-92.229 222.514c-59.429 59.429-138.514 92.229-222.514 92.229s-163.086-32.686-222.514-92.229c-59.429-59.429-92.229-138.514-92.229-222.514s32.686-163.086 92.229-222.514c34.743-34.743 76.229-60.343 121.486-75.657-16-4.457-31.886-9.829-47.314-16.457-45.371-19.2-86.171-46.743-121.143-81.714s-62.514-75.771-81.714-121.143c-19.886-47.086-29.943-96.914-29.943-148.457 0-22.743 18.4-41.143 41.143-41.143s41.143 18.4 41.143 41.143c0 79.886 31.086 154.971 87.543 211.429s131.543 87.543 211.429 87.543c79.886 0 154.971-31.086 211.429-87.543s87.543-131.543 87.543-211.429c0-22.743 18.4-41.143 41.143-41.143s41.143 18.4 41.143 41.143c-0.229 51.543-10.286 101.371-30.171 148.457zM206.4 643.2c0 128.229 104.343 232.457 232.457 232.457s232.457-104.229 232.457-232.457c0-128.229-104.229-232.457-232.457-232.457s-232.457 104.343-232.457 232.457z" />
<glyph unicode="&#xe982;" glyph-name="email" horiz-adv-x="1260" d="M1094.031 960.123h-926.892c-48.985 0-88.615-39.631-88.615-88.615v-770.338c0-48.985 39.631-88.615 88.615-88.615h926.892c48.985 0 88.615 39.631 88.615 88.615v770.338c0 48.862-39.754 88.615-88.615 88.615zM999.015 871.508l-331.938-277.415-1.723-1.846c-8.369-8.862-19.692-13.662-31.877-13.785-0.123 0-0.123 0-0.246 0-12.062 0-23.385 4.8-31.754 13.415l-1.723 1.723-336.985 277.908h736.246zM1094.031 101.169h-926.892c0 0 0 0 0 0v734.277l372.677-307.077c25.108-24.862 58.092-38.523 93.538-38.523 0.246 0 0.369 0 0.615 0 35.569 0.123 68.8 14.031 93.785 39.262l366.4 306.215v-734.154c-0.123 0-0.123 0-0.123 0z" />
<glyph unicode="&#xe984;" glyph-name="zoom_ic" d="M924.603 132.73l-195.905 195.81c52.476 63.333 84 144.571 84 233.238 0 202-163.714 365.714-365.714 365.714s-365.714-163.714-365.714-365.714c0-202 163.714-365.714 365.714-365.714 88.667 0 169.905 31.524 233.238 84l195.905-195.905c6.667-6.667 15.429-10 24.286-10s17.524 3.333 24.286 10c13.238 13.429 13.238 35.143-0.095 48.571zM562.603 287.968c-36.571-15.524-75.429-23.333-115.619-23.333s-79.048 7.81-115.619 23.333c-35.333 14.952-67.143 36.381-94.476 63.714s-48.762 59.143-63.714 94.476c-15.524 36.571-23.333 75.429-23.333 115.619s7.81 79.048 23.333 115.619c14.952 35.333 36.381 67.143 63.714 94.476s59.143 48.762 94.476 63.714c36.571 15.524 75.429 23.333 115.619 23.333s79.048-7.81 115.619-23.333c35.333-14.952 67.143-36.381 94.476-63.714s48.762-59.143 63.714-94.476c15.524-36.571 23.333-75.429 23.333-115.619s-7.81-79.048-23.333-115.619c-14.952-35.333-36.381-67.143-63.714-94.476s-59.048-48.762-94.476-63.714zM649.765 593.534h-178.316v166.813c0 10.691-9.014 19.341-20.155 19.341s-20.155-8.65-20.155-19.341v-166.813h-174.397c-11.141 0-20.155-8.65-20.155-19.341s9.014-19.341 20.155-19.341h174.397v-167.35c0-10.691 9.014-19.341 20.155-19.341s20.155 8.65 20.155 19.341v167.35h178.316c11.141 0 20.155 8.65 20.155 19.341s-9.014 19.341-20.155 19.341z" />
<glyph unicode="&#xe985;" glyph-name="refresh_trial_balance_ic" d="M954.168 455.862c-3.3 19.599-21.798 32.898-41.397 29.598s-32.898-21.798-29.598-41.397c3.2-18.999 4.8-39.797 4.8-60.296 0-100.393-39.097-194.786-110.092-265.781s-165.388-109.992-265.881-109.992c-100.393 0-194.886 39.097-265.881 110.092s-110.092 165.488-110.092 265.881c0 100.393 39.097 194.886 110.092 265.881s165.488 110.092 265.881 110.092c4.2 0 8.399-0.1 12.599-0.2l-81.794-81.794c-14.099-14.099-14.099-36.897 0-50.896 14.099-14.099 36.897-14.099 50.896 0l135.79 135.79c14.099 14.099 14.099 36.897 0 50.896l-135.79 135.69c-14.099 14.099-36.897 14.099-50.896 0-14.099-14.099-14.099-36.897 0-50.896l66.595-66.595c-59.496-0.3-117.291-12.199-171.687-35.197-53.396-22.598-101.293-54.896-142.39-95.993s-73.395-88.993-95.993-142.39c-23.398-55.296-35.297-113.892-35.297-174.387s11.899-119.091 35.197-174.387c22.598-53.396 54.896-101.293 95.993-142.39s88.993-73.395 142.39-95.993c55.296-23.398 113.892-35.197 174.387-35.197s119.091 11.799 174.387 35.197c53.396 22.498 101.293 54.796 142.39 95.893s73.395 88.993 95.993 142.29c23.398 55.196 35.197 113.892 35.197 174.387 0 24.698-2 48.996-5.8 72.095z" />
<glyph unicode="&#xe986;" glyph-name="save_mapping_ic" d="M678.68 907.72h-540c-47.76 0-86.4-38.64-86.4-86.4v-747.6c0-47.76 38.64-86.4 86.4-86.4h747.6c47.76 0 86.4 38.64 86.4 86.4v540.12l-294 293.88zM293.36 821.32h260.4v-247.080c0-23.88-19.32-43.2-43.2-43.2h-174c-23.88 0-43.2 19.32-43.2 43.2v247.080zM886.28 73.72h-747.6v747.6h68.28v-247.080c0-71.52 58.080-129.6 129.6-129.6h174c71.52 0 129.6 58.080 129.6 129.6v247.080h2.76l243.24-243.24v-504.36h0.12zM461.36 617.44c23.88 0 43.2 19.32 43.2 43.2v51.6c0 23.88-19.32 43.2-43.2 43.2s-43.2-19.32-43.2-43.2v-51.6c0-23.88 19.32-43.2 43.2-43.2z" />
</font>
</defs>
</svg>
